<svg xmlns="http://www.w3.org/2000/svg" xmlns:xlink="http://www.w3.org/1999/xlink" width="1500" height="1500" viewBox="0 0 1500 1500">
  <defs>
    <clipPath id="clip-undraw_art_lover_re_fn8g">
      <rect width="1500" height="1500"/>
    </clipPath>
  </defs>
  <g id="undraw_art_lover_re_fn8g" clip-path="url(#clip-undraw_art_lover_re_fn8g)">
    <rect width="1500" height="1500" fill="#fff"/>
    <path id="Path_6863" data-name="Path 6863" d="M888.516,119.1,871.4,129.954l10.391-18.959a16.954,16.954,0,0,0-10.351-3.687h-.284a18.736,18.736,0,0,1-3.545-.263l-5.813,3.687,2.491-4.537a20.52,20.52,0,0,1-10.128-7.7l-10.391,6.583,6.563-11.931A30.383,30.383,0,0,0,827.059,81.38c-10.817,0-20.438,6.441-26.637,16.448a19.972,19.972,0,0,1-17.623,9.5h-.567c-11.931,0-21.593,13.531-21.593,30.2s9.642,30.181,21.573,30.181a16.2,16.2,0,0,0,7.515-1.884,31.073,31.073,0,0,1,26.13-.506,27.629,27.629,0,0,0,11.181,2.39,27.346,27.346,0,0,0,11.04-2.35,31.255,31.255,0,0,1,25.907.506,16.2,16.2,0,0,0,7.454,1.843c11.91,0,21.593-13.531,21.593-30.2a38.486,38.486,0,0,0-4.517-18.413Z" transform="translate(490.504 380.645)" fill="#f2dece"/>
    <path id="Path_6864" data-name="Path 6864" d="M856.289,143.277a31.984,31.984,0,0,0-18.514,2.026,27.346,27.346,0,0,1-22.282,0,31.235,31.235,0,0,0-26.13.506,16.022,16.022,0,0,1-7.515,1.884c-10.614,0-19.426-10.675-21.248-24.753a20.1,20.1,0,0,0,5.287-5.712c6.219-10.006,15.84-16.427,26.637-16.427s20.256,6.34,26.535,16.2a20.4,20.4,0,0,0,17.6,9.682h.263C845.432,126.667,852.724,133.432,856.289,143.277Z" transform="translate(490.463 400.562)" opacity="0.03"/>
    <path id="Path_6826" data-name="Path 6826" d="M1190.93,1129.534H503.488a15.4,15.4,0,0,1-15.377-15.377V130.029a15.394,15.394,0,0,1,15.377-15.377H1190.93a15.394,15.394,0,0,1,15.377,15.377v984.128a15.4,15.4,0,0,1-15.377,15.377Z" transform="translate(59.227 28.348)" fill="#d48123"/>
    <path id="Path_6827" data-name="Path 6827" d="M1169.985,1108.589h-658.5a15.4,15.4,0,0,1-15.377-15.377V138.029a15.394,15.394,0,0,1,15.377-15.377h658.5a15.394,15.394,0,0,1,15.377,15.377v955.183a15.4,15.4,0,0,1-15.377,15.377Z" transform="translate(65.699 34.82)" fill="#fff"/>
    <path id="Path_6828" data-name="Path 6828" d="M656.75,829.944c-58.578-77.327-35.348-165.582-69.666-227.151C455.553,366.82,617.515,388.561,800.628,434.45l.437,5.091C684.52,457.526,607.873,517.507,590.777,604.1c-13.287,67.3,11.095,146.208,68.653,222.191Z" transform="translate(100.561 263.381)" fill="#eedacc"/>
    <path id="Path_6829" data-name="Path 6829" d="M802.147,749.536l-1.224-4.853c65.386-29.645,59.768-117.942,118.268-138.1,445.632-153.6,5.744-170.917-93.2-252.162C737.51,281.763,641.081,197.293,518.53,153.788l.977-4.953c123.086,43.7,232.808,115.317,308.951,201.67C904.984,437.291,938.52,528.7,922.885,607.889,910.556,670.336,868.805,719.316,802.147,749.536Z" transform="translate(83.838 56.004)" fill="#eedacc"/>
    <path id="Path_6830" data-name="Path 6830" d="M582.265,432.439c-29.88-2.361,5.378-22.135,7.738-52.015a54.272,54.272,0,1,1,108.206,8.548C695.849,418.853,612.145,434.8,582.265,432.439Z" transform="translate(125.73 202.92)" fill="#e18b25"/>
    <path id="Path_6831" data-name="Path 6831" d="M773.682,331.424a54.272,54.272,0,0,1-49.829-58.377c2.36-29.88-56.977-49.868-27.1-47.508s137.664,26.176,135.3,56.056a54.271,54.271,0,0,1-58.377,49.829Z" transform="translate(221.213 117.909)" fill="#e18b25"/>
    <path id="Path_6832" data-name="Path 6832" d="M917.3,249.311c3.938,8.169,1.616,17.607-3.584,24.659-5.915,8.022-15.324,11.977-24.975,13.283a76.868,76.868,0,0,1-30.882-2.543c-9.661-2.788-19.687-8.764-21.679-19.441-1.328-7.116,1.708-14.71,9.1-16.682a17.793,17.793,0,0,1,16.845,4.57c6.136,6.386,5.669,16.636,1.769,24.053-4.586,8.724-13.763,13.538-23.2,15.127-11.218,1.889-22.49-.75-33.042-4.5-11.47-4.08-22.6-9.161-33.834-13.827-21.916-9.1-44.3-17.651-67.872-21.276-36-5.537-78.731,3.085-100.77,34.649-11.9,17.039-15.268,38.408-12.707,58.737,2.7,21.438,12.107,41.139,24.563,58.585a248.759,248.759,0,0,0,21.556,25.8,17.765,17.765,0,0,1,4.1,19.355c-6.828,16.776-34.127,11.43-36.161-5.863-.924-7.858,3.46-15.95,8.937-21.28a42.121,42.121,0,0,1,22.465-10.883c17.714-2.958,36.438,3.61,49.979,15.018,15.3,12.888,23.908,32.474,28.444,51.54,5.164,21.707,5.428,44.034,5.919,66.223.5,22.707,1.365,45.683,7.88,67.6a167.055,167.055,0,0,0,24.2,49.254,174.492,174.492,0,0,0,86.979,64.456,159.833,159.833,0,0,0,26.022,6.1c3.456.512,3.869-4.9.427-5.41C829.29,720.9,793.9,700.059,768.562,670.77a165.491,165.491,0,0,1-29.648-49.421c-8.262-21.777-10.357-44.91-11.032-68.023-.689-23.605-.314-47.425-5.04-70.678-4.178-20.557-12.373-41.374-27.55-56.352-13.382-13.207-32.527-21.377-51.449-20.5-17.606.816-36.431,10.512-41.663,28.475-2.455,8.429-.893,17.477,5.542,23.738a27.371,27.371,0,0,0,28.028,5.923,22.706,22.706,0,0,0,12.607-27.777,27.634,27.634,0,0,0-6.806-10.41c-15.883-16.962-30.458-35.943-38.367-58.029-7.377-20.6-8.89-44.3-.382-64.8,16.106-38.806,62.85-50.466,100.925-45.042,24.918,3.549,48.512,12.984,71.594,22.634,11.787,4.928,23.5,10.4,35.722,14.176,10.945,3.377,22.689,5.073,33.965,2.3,9.842-2.418,18.887-8.14,23.655-17.294,4.33-8.315,5.078-18.866-.072-27.012-7.446-11.778-28.005-14.427-35.5-1.2-4.971,8.777-2.529,20.017,4,27.3,7.32,8.161,18.281,11.495,28.771,13.177,19.822,3.179,44.231.681,54.835-18.9,4.369-8.066,5.549-17.682,1.484-26.114a2.716,2.716,0,0,0-4.887,2.362Z" transform="translate(143.002 131.91)" fill="#551f12"/>
    <path id="Path_6833" data-name="Path 6833" d="M823.768,623.877c-31.686-2.5-116.41,40.853-139.344,22.2q-4.3-3.47-8.317-7.281a149.427,149.427,0,0,1-23.066-27.555c-1.135-1.7-2.216-3.423-3.258-5.157A152.335,152.335,0,0,1,640.1,586.9c-.486-1.2-.97-2.418-1.455-3.635A151.067,151.067,0,0,1,895.163,431.534c1.229,1.44,2.419,2.913,3.589,4.421a150.451,150.451,0,0,1,25.776,50.216c0,.018.017.02.015.038a151.655,151.655,0,0,1,.374,83.705l0,.036c-.175.6-.349,1.206-.542,1.808C904.582,638.736,896.176,629.6,823.768,623.877Z" transform="translate(172.768 241.151)" fill="#e18b25"/>
    <path id="Path_6834" data-name="Path 6834" d="M636.224,568.5a2.86,2.86,0,0,1-.684-.072c-.486-1.2-.97-2.418-1.455-3.635a2.713,2.713,0,0,1,2.566-1.7,37.079,37.079,0,0,0,8.149-.935c23.207-5.244,36.734-29,42.529-50.21,7.113-25.951,7.211-53.835,20.066-78.044a68.544,68.544,0,0,1,21.393-25,48.7,48.7,0,0,1,33.926-7.936c28,3.7,48.435,25.258,74.428,34.134,10.708,3.659,22.106,4.559,32.814.4,9.1-3.528,17.4-10.494,19.277-20.508a2.628,2.628,0,0,1,1.368-1.924c1.229,1.44,2.419,2.913,3.589,4.421a26.37,26.37,0,0,1-1.812,5.247c-4.568,9.584-13.677,15.778-23.594,18.878-11.479,3.575-23.421,2.215-34.592-1.789-26.047-9.334-47.471-32.4-76.23-33.841-24.926-1.243-42.151,19.245-50.445,40.62-10.255,26.447-8.732,56.092-20.245,82.149C678.213,549.243,660.059,568.405,636.224,568.5Z" transform="translate(177.33 259.625)" fill="#551f12"/>
    <path id="Path_6835" data-name="Path 6835" d="M643.5,563.085c-1.135-1.7-2.216-3.423-3.258-5.157a2.257,2.257,0,0,1,1.815-.456,91.837,91.837,0,0,0,65.492-17.456,90.738,90.738,0,0,0,21.215-21.842c6.013-8.816,9.646-18.728,13.721-28.514,4.009-9.628,8.716-19.364,16.689-26.338,8.129-7.107,18.617-10.089,29.241-10.411,25.175-.751,47.127,13.559,71.628,16.51,10.929,1.317,21.778-.257,31.135-6.36,8.075-5.278,13.954-13.542,13.576-23.462-.14-3.277,4.633-3.064,5.331-.178a2.906,2.906,0,0,1,.079.605c.431,11.539-6.664,21.413-16,27.517-10.851,7.109-23.529,8.866-36.217,7.065-24.548-3.5-47.238-18.358-72.639-16.118A38.123,38.123,0,0,0,757.761,472.7c-6.685,8.582-10.216,19.064-14.341,29.009a100.586,100.586,0,0,1-16.211,27.41,99.3,99.3,0,0,1-24.127,20.342A96.206,96.206,0,0,1,643.5,563.085Z" transform="translate(182.311 289.308)" fill="#551f12"/>
    <path id="Path_6836" data-name="Path 6836" d="M663.109,562.7q-4.3-3.47-8.317-7.281a102.657,102.657,0,0,0,42.289,1.762,106.557,106.557,0,0,0,48.54-21.1,93.355,93.355,0,0,0,18.456-19.3c5.921-8.333,11.094-17.543,20.023-23.062,19.383-11.97,42.581-1.028,61.933,4.856,10.1,3.084,20.95,5.176,31.237,1.76,7.976-2.654,15.718-8.54,17.294-17.234.615-3.417,6.045-3.007,5.41.427q-.185.965-.424,1.926c-2.488,9.439-10.212,16.251-19.329,19.56-11.9,4.286-24.225,2.278-36.044-1.323-19.439-5.927-44.844-18.115-62.432-1.3-7.42,7.09-11.971,16.693-18.662,24.44a100.877,100.877,0,0,1-20.468,18.127A113.222,113.222,0,0,1,663.109,562.7Z" transform="translate(194.082 324.53)" fill="#551f12"/>
    <path id="Path_6837" data-name="Path 6837" d="M933.431,773.133H804.988a15.4,15.4,0,0,1-15.377-15.377V712.529a15.394,15.394,0,0,1,15.377-15.377H933.431a15.394,15.394,0,0,1,15.377,15.377v45.226a15.4,15.4,0,0,1-15.377,15.377Z" transform="translate(303.158 499.625)" fill="#eedacc"/>
    <path id="Path_6838" data-name="Path 6838" d="M142.482,334.364l3.39,31.445-2,41.232,91.33-10.851,8.582-61.826-10.934.109Z" transform="translate(349.246 413.52)" fill="#ffb6b6"/>
    <path id="Path_6839" data-name="Path 6839" d="M577.058,409.6l-28.237-10.443-12.066-17.522-43.4-4.34-26.773,17.151-22.445,11.429.384,59.677,25.805,106.864,92.262-3.618,12.144-76.2S602.942,454.7,572.56,433Z" transform="translate(23.646 240.841)" fill="#93a7bc"/>
    <path id="Path_6840" data-name="Path 6840" d="M116.3,684.383h19.968l9.5-77.019H116.3Z" transform="translate(328.061 634.393)" fill="#ddb08e"/>
    <path id="Path_6841" data-name="Path 6841" d="M429.382,757.882l31.9-1.9v13.668l30.329,20.946a8.537,8.537,0,0,1-4.851,15.563H448.781l-6.546-13.519-2.556,13.519h-14.32Z" transform="translate(8.457 547.218)" fill="#551f12"/>
    <path id="Path_6842" data-name="Path 6842" d="M178.3,684.383h19.968l9.5-77.019H178.3Z" transform="translate(378.221 634.393)" fill="#ddb08e"/>
    <path id="Path_6843" data-name="Path 6843" d="M491.382,757.882l31.9-1.9v13.668l30.329,20.946a8.537,8.537,0,0,1-4.851,15.563H510.781l-6.546-13.519-2.556,13.519h-14.32Z" transform="translate(58.619 547.218)" fill="#551f12"/>
    <path id="Path_6844" data-name="Path 6844" d="M428.783,925.983H429l3.84-125.229a32.746,32.746,0,0,1,.43-30.944l.55-1-1.426-6.608a42.091,42.091,0,0,1,2.405-25.332l3.583-116.816c-12.8-82.948,48.2-137.043,48.2-137.043h91.372l19.617,67.4C610.536,676.76,608.183,799.88,587.6,919.162l.561.284c2.02.7,2.886,3.5,1.936,6.251s-3.359,4.423-5.379,3.726l-48.255-1.678c-2.02-.7-2.887-3.5-1.936-6.251s3.359-4.423,5.379-3.726l3.281,1.66-7-120.841.777-22.073-1.6-25.041-7.4-112.633-28,138.507-28.6,150.03a5.261,5.261,0,0,1-3.547,9.16H428.783a5.277,5.277,0,0,1,0-10.554Z" transform="translate(6.957 326.376)" fill="#534711"/>
    <path id="Path_6845" data-name="Path 6845" d="M423.438,609.922a16.566,16.566,0,0,1,1.776-25.34L449.56,435.152,478.111,445.2,449.18,589.145a16.656,16.656,0,0,1-25.741,20.777Z" transform="translate(2.803 287.651)" fill="#ddb08e"/>
    <path id="Path_6846" data-name="Path 6846" d="M465.615,393.107s-8.189-3.086-11.162,15.216c-2.379,14.652-25.61,103.1-23.412,123.588a13.015,13.015,0,0,0-8.664,13.4l42.835.219c6.559-7.154,7.409-15.785,4.242-17.906l5.926-26.148,27.909-84.361-31.716-21.88Z" transform="translate(6.006 253.475)" fill="#93a7bc"/>
    <path id="Path_6847" data-name="Path 6847" d="M548.205,613.856a16.567,16.567,0,0,0,.411-25.4l-8.684-150.3-32.022,6.886,16.437,145.9a16.656,16.656,0,0,0,23.858,22.915Z" transform="translate(75.246 290.078)" fill="#ddb08e"/>
    <path id="Path_6848" data-name="Path 6848" d="M534.842,394.936s8.425-2.37,9.811,16.12c1.11,14.8,16.644,104.917,12.69,125.144a13.014,13.014,0,0,1,7.479,14.094l-42.7-3.468c-5.919-7.692-6.024-16.364-2.686-18.2l-3.654-26.561-20.547-86.449,33.482-19.07Z" transform="translate(64.996 255.034)" fill="#93a7bc"/>
    <circle id="Ellipse_1068" data-name="Ellipse 1068" cx="43.193" cy="43.193" r="43.193" transform="translate(476.465 528.666)" fill="#ddb08e"/>
    <path id="Path_6849" data-name="Path 6849" d="M439.717,473.315q-13.71-4.859-27.421-9.736a27.6,27.6,0,0,1,5.936-6.987c8.7-7.267,20.714-8.58,31.763-11.031,11.066-2.451,23.078-7.477,27.123-18.053,4.2-11-1.891-22.868-5.428-34.075-4.955-15.636-4.85-33.094,1.786-48.083S493.6,318.211,509.6,314.639c16-3.555,34.092,2.241,43.933,15.339a27.089,27.089,0,0,1,32.6,15.094c2.294,5.743,2.364,12.66-1.05,17.825s-10.716,7.81-16.214,4.938l3.187-8.09c-9.858,3.344-16.267,21.17-14.936,31.5,1.313,10.313,7.337,19.349,13.448,27.771s12.625,16.932,15.251,27c3.782,14.481-1.331,30.31-10.786,41.919s-22.781,19.489-36.578,25.285a169.567,169.567,0,0,1-32.043,9.876c1.961-3.817,3.9-7.634,5.866-11.452l-23.271,14.078c-4.5.438-9.035.7-13.57.788-13.2.228-26.668-1.156-38.75-6.426-12.1-5.288-22.728-14.866-27.106-27.316a35.4,35.4,0,0,1-1.961-12.537Q423.669,476.765,439.717,473.315Z" transform="translate(-5.902 189.318)" fill="#551f12"/>
    <path id="Path_6850" data-name="Path 6850" d="M471.161,862.609a6.536,6.536,0,0,1-4.737-11.329l.448-1.781-.178-.427a17.554,17.554,0,0,0-32.38.12c-5.3,12.755-12.038,25.531-13.7,39.017a51.929,51.929,0,0,0,.912,17.86A208.2,208.2,0,0,1,402.589,819.6a200.952,200.952,0,0,1,1.246-22.418q1.033-9.153,2.865-18.176a210.611,210.611,0,0,1,41.766-89.262,56.05,56.05,0,0,0,23.311-24.185,42.751,42.751,0,0,0,3.888-11.683c-1.135.149-2.288.242-3.423.316l-1.079.056-.133.006a6.476,6.476,0,0,1-5.319-10.551l1.471-1.808c.744-.93,1.507-1.842,2.251-2.772a3.265,3.265,0,0,0,.242-.279c.856-1.06,1.712-2.1,2.568-3.163a18.728,18.728,0,0,0-6.139-5.934c-8.576-5.023-20.409-1.544-26.6,6.214-6.214,7.758-7.386,18.641-5.228,28.334a75.046,75.046,0,0,0,10.381,23.143c-.465.6-.949,1.172-1.414,1.767a211.975,211.975,0,0,0-22.124,35.05,88.118,88.118,0,0,0-5.261-40.929c-5.035-12.147-14.474-22.378-22.785-32.88-9.983-12.614-30.455-7.109-32.214,8.881q-.025.232-.05.464,1.852,1.045,3.625,2.218a8.866,8.866,0,0,1-3.575,16.135l-.181.028A88.214,88.214,0,0,0,363,691.36a90.833,90.833,0,0,0,45.226,56.928c.726.372,1.433.744,2.158,1.1a216.359,216.359,0,0,0-11.646,54.807,205.2,205.2,0,0,0,.149,33.134l-.056-.391a54.224,54.224,0,0,0-18.511-31.31c-14.245-11.7-34.371-16.011-49.739-25.417a10.177,10.177,0,0,0-15.586,9.9q.031.205.063.411a59.538,59.538,0,0,1,6.679,3.218q1.852,1.045,3.625,2.218a8.866,8.866,0,0,1-3.575,16.135l-.181.028-.372.056a88.3,88.3,0,0,0,16.241,25.432,90.913,90.913,0,0,0,65.932,28.929h.019a216.3,216.3,0,0,0,14.53,42.417h51.9c.186-.577.354-1.172.521-1.749a58.974,58.974,0,0,1-14.362-.856c3.851-4.726,7.7-9.488,11.553-14.214a3.242,3.242,0,0,0,.242-.279c1.953-2.418,3.926-4.818,5.879-7.237v0a86.385,86.385,0,0,0-2.531-22.006Z" transform="translate(-80.906 443.187)" fill="#eedacc"/>
    <path id="Path_6851" data-name="Path 6851" d="M818.055,786.967l-498.848.556a2.154,2.154,0,1,1,0-4.308l498.848-.556a2.154,2.154,0,0,1,0,4.308Z" transform="translate(-79.168 568.805)" fill="#cacaca"/>
    <path id="Path_6861" data-name="Path 6861" d="M1067.318,198.968l-24.469,15.516,14.848-27a24.185,24.185,0,0,0-14.787-5.287h-.385a30.2,30.2,0,0,1-5.084-.385l-8.285,5.267,3.545-6.462a29.635,29.635,0,0,1-14.5-11.019l-14.828,9.541,9.358-17.055c-8.67-10.412-20.256-16.792-33.24-16.792-15.435,0-29.169,9.176-38.041,23.477a28.359,28.359,0,0,1-25.158,13.551h-.831c-17.035,0-30.829,19.324-30.829,43.145s13.794,43.145,30.829,43.145a23.193,23.193,0,0,0,10.756-2.694,44.564,44.564,0,0,1,37.332-.729,38.872,38.872,0,0,0,31.721,0,44.563,44.563,0,0,1,37.008.709,23.194,23.194,0,0,0,10.634,2.633c17.035,0,30.85-19.324,30.85-43.145a54.85,54.85,0,0,0-6.441-26.414Z" transform="translate(-558.026 36.118)" fill="#eedacc"/>
    <path id="Path_6862" data-name="Path 6862" d="M1021.185,233.716a45.556,45.556,0,0,0-26.333,2.856,38.81,38.81,0,0,1-31.741,0,44.563,44.563,0,0,0-37.332.729A23.112,23.112,0,0,1,915.044,240c-15.131,0-27.73-15.253-30.384-35.367a29.05,29.05,0,0,0,7.555-8.1c8.872-14.3,22.626-23.477,38.061-23.477s29.006,9.054,37.879,23.213a29.209,29.209,0,0,0,25.137,13.815h.385C1005.669,209.875,1016.1,219.537,1021.185,233.716Z" transform="translate(-557.995 64.588)" opacity="0.03"/>
  </g>
</svg>
