<?xml version="1.0" encoding="iso-8859-1"?>
<!-- Generator: Adobe Illustrator 18.0.0, SVG Export Plug-In . SVG Version: 6.00 Build 0)  -->
<!DOCTYPE svg PUBLIC "-//W3C//DTD SVG 1.1//EN" "http://www.w3.org/Graphics/SVG/1.1/DTD/svg11.dtd">
<svg version="1.1" id="_x31_" xmlns="http://www.w3.org/2000/svg" xmlns:xlink="http://www.w3.org/1999/xlink" x="0px" y="0px"
	 viewBox="0 0 512 512" style="enable-background:new 0 0 512 512;" xml:space="preserve">
<g>
	<rect style="fill:#E4AE9E;" width="512" height="512"/>
	<path style="opacity:0.15;fill:#040000;" d="M512,207.923V512H253.389L129.382,387.992L80.998,339.61l-8.857-8.859l4.096-2.866
		c0-0.053-0.051-0.053-0.051-0.103l29.287-20.582l56.473-39.578l0.051-0.051l36.403-25.499v-0.05l0.103-0.051
		c0,0.051,0.051,0.051,0.051,0.051l0.051,0.05c0.461,0.308,0.87,0.615,1.331,0.923c0.154,0.154,0.358,0.256,0.512,0.357
		c0.102,0.053,0.154,0.103,0.256,0.155c0,0,0.051,0,0.051,0.05c0.102,0.053,0.154,0.103,0.256,0.154l2.509-1.74v-0.051
		l31.642-21.811h0.051l8.294-5.786c0,0,5.478-3.737,10.906-7.424c5.479-3.686,10.957-7.424,10.957-7.424
		c3.533,1.382,7.322,2.457,11.264,3.276c2.048,0.41,4.096,0.769,6.246,0.974c5.632,0.665,11.571,0.767,17.613,0.102l0.307-0.053
		c1.997-0.204,3.943-0.46,5.888-0.819c2.048-0.359,4.045-0.819,5.99-1.331c4.454-1.126,8.704-2.663,12.647-4.505
		c6.758-3.124,12.595-7.117,17.408-11.725c-1.024-4.148-2.56-8.09-4.557-11.725c16.589-5.785,29.235-20.019,32.666-37.632
		c0.358-1.791,0.614-3.584,0.768-5.375c0.103-0.973,0.153-1.946,0.205-2.97c0.051-2.406-0.051-4.813-0.358-7.118v-0.152
		l30.054-21.044c0,0,0.051,0.051,0.051,0.103l0.154-0.103l1.024-0.716l0.102,0.103L512,207.923z"/>
	<g>
		<linearGradient id="SVGID_1_" gradientUnits="userSpaceOnUse" x1="224.3536" y1="183.1187" x2="319.6698" y2="298.1555">
			<stop  offset="0" style="stop-color:#D8687B"/>
			<stop  offset="0.9855" style="stop-color:#B5242A"/>
		</linearGradient>
		<path style="fill:url(#SVGID_1_);" d="M439.552,170.495c0-0.204-0.051-0.409-0.103-0.614c-2.509,2.253-5.274,4.351-8.243,6.298
			c-1.127,0.769-2.304,1.485-3.533,2.151c-1.997,1.178-4.147,2.303-6.349,3.276c-3.072,1.434-6.298,2.663-9.626,3.738
			c-1.997,0.666-4.045,1.229-6.144,1.741c-0.973,0.205-1.946,0.46-2.918,0.665c-1.843,0.359-3.738,0.665-5.632,0.921
			c-1.229,0-7.322-27.239-8.499-27.239c-4.147,0.461-7.424,0.103-10.598,0.053h-0.973c-1.741,0-3.43,0.102-5.273,0.511
			c-1.126,0.256-2.304,0.615-3.533,1.126c-0.358,0.154-0.666,0.307-1.075,0.461c-0.051,0-0.051,0-0.103,0.051l-0.051,0.051
			c-4.967,2.406-11.162,7.373-20.173,17.356c-0.666,0.82-1.383,1.639-2.099,2.408c-0.563,0.614-1.126,1.178-1.741,1.791
			c-0.051,0.051-0.103,0.102-0.154,0.154c-4.813,4.607-10.65,8.601-17.408,11.725c-3.943,1.842-8.192,3.379-12.647,4.505
			c-1.946,0.512-3.943,0.973-5.99,1.331c-1.946,0.359-3.891,0.615-5.888,0.819l-0.307,0.053c-6.042,0.665-11.981,0.563-17.613-0.102
			c-2.15-0.205-4.198-0.564-6.246-0.974c-3.943-0.819-7.731-1.894-11.264-3.276c0,0-5.478,3.737-10.957,7.424
			c-5.427,3.686-10.906,7.424-10.906,7.424l-8.294,5.786h-0.051L203.52,241.92v0.051l-2.509,1.74h-0.051l-0.051,0.051l-0.409,0.256
			l-34.458,23.756l-0.205,0.155l-1.894,1.33l-0.051,0.051l-57.446,44.34c0.051,0.051,0.102,0.051,0.153,0.101
			c0.103,0.103,0.256,0.205,0.358,0.307c0.103,0.051,0.153,0.103,0.256,0.154c0.205,0.154,0.41,0.307,0.666,0.461
			c0.256,0.205,0.563,0.358,0.819,0.615c0.102,0.05,0.205,0.101,0.307,0.204c0.102,0.051,0.153,0.103,0.256,0.154
			c0.87,0.615,1.792,1.28,2.714,1.945c0.051,0.052,0.103,0.103,0.154,0.103c0.205,0.155,0.358,0.256,0.512,0.359
			c0.41,0.307,0.819,0.564,1.178,0.819c1.229,0.82,2.406,1.587,3.584,2.356c7.936,5.223,16.231,9.984,24.781,14.284
			c0.051,0,0.051,0.052,0.153,0.052c43.367,22.015,94.362,33.383,146.534,34.047c2.867,0.051,5.735,0.051,8.602,0
			c0.051,0.051,0.051,0.051,0.051,0h0.051c4.096,0,8.141-0.154,12.288-0.307c1.433-0.051,2.867-0.154,4.352-0.205
			c1.126-0.05,2.355-0.152,3.482-0.205h0.205c9.165-0.614,18.381-1.535,27.546-2.764h0.051c5.069-0.717,10.086-1.485,15.155-2.356
			c1.843-0.357,3.687-0.665,5.53-1.024c4.301-0.819,8.55-1.74,12.749-2.661C430.848,310.733,452.608,238.643,439.552,170.495z"/>
		<g>
			<g>
				<path style="fill:#E95D63;" d="M370.115,260.676l0.555-3.169c-0.674,0.36-1.353,0.708-2.025,1.074L370.115,260.676z"/>
				<path style="fill:#E95D63;" d="M378.931,360.09c-5.069,4.813-10.445,9.42-16.077,13.823c-2.56,1.997-5.171,3.892-7.885,5.786
					c-9.114,6.4-18.586,11.93-28.263,16.691c-2.253,1.075-4.557,2.15-6.861,3.175c-62.157,27.596-133.427,22.374-190.464-11.573
					c-19.661-11.672-37.581-26.777-52.941-45.158v-0.051c-0.717-0.819-1.331-1.536-1.997-2.304
					c-1.075-1.383-2.151-2.765-3.226-4.148c-0.819-1.075-1.638-2.1-2.458-3.225l3.379-2.356l4.096-2.866h0.051l0.102-0.103h0.051
					c1.229,1.638,2.458,3.225,3.687,4.813c0.205,0.307,0.41,0.563,0.614,0.819c0.051,0.051,0.051,0.051,0.103,0.103l0.051,0.051
					c0,0.051,0.051,0.051,0.051,0.051c0,0.051,0.051,0.103,0.103,0.154c0.153,0.154,0.358,0.359,0.512,0.563
					c0.768,1.076,1.638,2.1,2.509,3.124c1.843,2.201,3.738,4.353,5.683,6.451c2.048,2.253,4.147,4.455,6.298,6.605
					c1.894,1.895,3.84,3.737,5.786,5.477c2.048,1.895,4.147,3.739,6.246,5.53c0.358,0.307,0.717,0.615,1.024,0.87
					c1.843,1.485,3.686,3.021,5.581,4.455c4.659,3.584,9.421,6.913,14.285,10.035c0.819,0.564,1.69,1.075,2.56,1.639
					c0.461,0.256,0.819,0.511,1.229,0.716c8.602,5.223,17.511,9.729,26.675,13.518c0.717,0.307,1.433,0.615,2.15,0.921
					c0.051,0,0.051,0,0.051,0c1.536,0.615,3.072,1.229,4.659,1.793c1.638,0.614,3.277,1.229,4.966,1.791
					c8.55,2.97,17.306,5.274,26.214,7.015c0.307,0.103,0.563,0.154,0.819,0.205c0.512,0.102,1.024,0.205,1.587,0.255
					c0.973,0.205,1.945,0.359,2.918,0.513c0.615,0.154,1.331,0.256,1.997,0.359c1.843,0.306,3.738,0.564,5.683,0.819
					c1.587,0.205,3.175,0.359,4.762,0.564c1.997,0.204,3.942,0.359,5.939,0.511c3.021,0.205,5.99,0.359,9.063,0.461
					c0.256,0,0.563,0.051,0.87,0.051c1.382,0,2.816,0.051,4.25,0.051c1.382,0,2.765,0,4.198-0.051c1.024,0,2.048-0.051,3.072-0.051
					c0.205,0,0.461-0.051,0.666-0.051c0.666,0,1.28-0.051,1.946-0.051c0.256,0,0.512-0.051,0.717-0.051
					c1.229-0.051,2.406-0.154,3.533-0.205c0.409-0.051,0.768-0.051,1.178-0.103c0.87-0.05,1.792-0.152,2.663-0.205
					c0.614-0.05,1.177-0.103,1.792-0.204c1.741-0.154,3.482-0.307,5.223-0.564c4.71-0.563,9.421-1.331,14.08-2.253
					c3.635-0.717,7.27-1.536,10.854-2.509c1.024-0.256,2.099-0.512,3.174-0.819c1.075-0.307,2.202-0.564,3.277-0.974
					c0.051,0.051,0.154,0,0.256-0.051c1.075-0.307,2.15-0.614,3.226-0.972c0.512-0.154,1.024-0.308,1.587-0.513
					c0.717-0.205,1.433-0.409,2.15-0.665c0.614-0.205,1.28-0.461,1.894-0.665c0.666-0.256,1.331-0.461,1.997-0.717
					c0.717-0.256,1.382-0.513,2.099-0.768c1.075-0.41,2.099-0.82,3.174-1.23c2.151-0.819,4.25-1.689,6.349-2.61
					c0,0,0.051,0,0.051-0.051c0.921-0.359,1.792-0.769,2.714-1.179c0.307-0.152,0.666-0.306,0.973-0.46
					c0.819-0.359,1.638-0.767,2.509-1.126c0.103-0.051,0.153-0.103,0.256-0.154c0.614-0.256,1.229-0.563,1.792-0.87
					c0.409-0.154,0.768-0.359,1.177-0.564c1.024-0.511,2.048-1.075,3.123-1.588c0.87-0.46,1.69-0.87,2.56-1.381
					c0.563-0.307,1.127-0.615,1.69-0.974c3.635-1.945,7.27-4.096,10.803-6.349c0.563-0.357,1.075-0.665,1.639-1.075
					c0.614-0.359,1.229-0.768,1.843-1.178c0.666-0.41,1.331-0.922,1.997-1.382c0.717-0.461,1.383-0.921,2.048-1.383
					c2.713-1.895,5.376-3.891,7.987-5.939c0.973-0.769,1.996-1.536,2.969-2.304c0,0,0-0.053,0.051-0.053
					c0.41-0.357,0.87-0.716,1.28-1.024c1.741-1.434,3.379-2.866,5.017-4.3c1.331-1.179,2.611-2.356,3.891-3.534
					c2.97-2.713,5.786-5.529,8.499-8.396c1.997-2.049,3.942-4.147,5.786-6.298c0.666-0.769,1.28-1.485,1.894-2.252
					c6.963-8.141,13.107-16.743,18.534-25.754c0.307-0.461,0.563-0.87,0.768-1.331c0.666-1.075,1.331-2.201,1.946-3.329
					c0.359-0.614,0.717-1.228,1.024-1.791c1.075-1.996,2.15-3.994,3.174-5.991c0.512-1.024,1.024-2.099,1.536-3.122
					c0.819-1.587,1.536-3.225,2.253-4.813c3.584-7.783,6.605-15.821,9.063-23.962c0.051-0.205,0.154-0.46,0.205-0.716
					c0.205-0.716,0.461-1.434,0.666-2.201c1.229-4.25,2.304-8.5,3.226-12.8c0.154-0.666,0.307-1.331,0.41-1.997
					c0.102-0.41,0.205-0.768,0.256-1.126c0.154-0.716,0.307-1.434,0.461-2.15c0.409-2.201,0.768-4.404,1.126-6.605
					c0.512-3.43,0.973-6.861,1.331-10.291c0.205-1.842,0.359-3.686,0.512-5.58c0.051-1.025,0.154-2.1,0.205-3.175
					c0.051-0.973,0.102-1.895,0.153-2.868v-1.177c0.103-1.639,0.154-3.277,0.154-4.915c0.051-0.256,0.051-0.512,0-0.767
					c0.032-1.1,0.008-2.215,0-3.329c-0.005-0.651,0.019-1.304,0-1.946v-0.665c-0.051-2.201-0.102-4.403-0.256-6.605
					c-0.103-2.252-0.256-4.556-0.512-6.86c-0.052-0.689-0.143-1.377-0.207-2.066c-0.051-0.659-0.102-1.269-0.203-1.928
					c-0.051-0.717-0.103-1.434-0.205-2.151c-0.102-0.716-0.153-1.485-0.307-2.253c-0.153-1.229-0.307-2.509-0.512-3.789
					c-0.205-1.229-0.41-2.509-0.614-3.738c-0.256-1.588-0.512-3.174-0.871-4.71c-0.051-0.461-0.153-0.871-0.256-1.28
					c-0.358-1.997-0.768-3.942-1.28-5.889c-0.41-1.842-0.87-3.686-1.382-5.478c-0.922-3.585-1.997-7.117-3.123-10.65
					c-0.154-0.461-0.359-0.973-0.512-1.434c-0.051-0.205-0.103-0.409-0.205-0.564c-0.307-1.075-0.666-2.099-1.075-3.122
					c-0.461-1.434-1.024-2.868-1.587-4.301c-1.024-2.714-2.099-5.376-3.277-8.039c-0.358-0.819-0.768-1.689-1.126-2.56
					c-0.051-0.05-0.102-0.152-0.102-0.204c-0.256-0.615-0.563-1.177-0.819-1.792c-2.202-4.761-4.608-9.369-7.219-13.978
					c-0.307-0.564-0.614-1.075-0.922-1.639c-0.102-0.153-0.205-0.255-0.256-0.409c-0.564-1.024-1.178-1.998-1.792-3.021
					c-0.666-1.126-1.382-2.253-2.099-3.379c-0.819-1.229-1.587-2.459-2.355-3.636v-0.05l0.819-0.564l1.075-0.716l5.581-3.942
					l0.103-0.103c0.614,0.819,1.177,1.69,1.741,2.56c0.461,0.819,0.973,1.638,1.485,2.406c0,0.051,0.051,0.103,0.051,0.103
					c0.103,0.102,0.154,0.204,0.256,0.359l0.358,0.563l0.41,0.717l0.666,1.125c0.512,0.871,1.075,1.741,1.587,2.613
					c2.407,4.146,4.659,8.294,6.707,12.544c8.346,16.794,14.182,34.355,17.664,52.173c0.051,0.205,0.103,0.41,0.103,0.614
					C452.608,238.643,430.848,310.733,378.931,360.09z"/>
				<path style="fill:#E95D63;" d="M400.928,100.076c59.341,89.262,36.957,210.073-51.295,271.997
					c-88.239,61.915-209.459,41.866-273.211-44.3l22.046-15.469c55.126,73.872,159.76,91.025,235.705,37.736
					c75.958-53.298,95.422-157.527,44.708-234.495L400.928,100.076z"/>
				<path style="fill:#E95D63;" d="M410.163,242.79c-8.653,45.773-34.355,85.658-72.448,112.333
					c-7.527,5.274-15.36,9.932-23.501,13.978c-32.819,16.18-69.888,21.811-106.752,15.924
					c-41.83-6.759-79.207-27.699-106.445-59.494c-0.871-0.974-1.741-1.997-2.56-3.021c-1.741-2.151-3.431-4.301-5.12-6.503
					l-0.051-0.051v-0.051l1.894-1.331l3.277-2.253l7.117-5.018l10.24-7.169l48.026-33.689l34.663-24.27l0.102-0.103
					c0.461,0.308,0.87,0.615,1.331,0.923c0.154,0.154,0.358,0.256,0.512,0.357c0.102,0.053,0.154,0.103,0.256,0.155
					c0,0,0.051,0,0.051,0.05c0.051,0.053,0.102,0.103,0.205,0.154h0.051c0.358,0.256,0.41,0.256,2.048,1.229l1.587,0.871
					c0.256,0.154,0.512,0.256,0.768,0.409c0.051,0,0.102,0.051,0.154,0.051c0.307,0.154,0.614,0.256,0.87,0.41
					c0.717,0.359,1.434,0.666,2.202,0.972c0.666,0.308,1.331,0.513,2.048,0.769c0.051,0,0.102,0,0.154,0.05h0.051
					c2.048,0.666,4.096,1.179,6.247,1.537c2.099,0.409,4.198,0.614,6.4,0.665c3.072,0.102,6.093-0.154,9.011-0.665
					c10.906-1.844,20.48-7.783,27.136-16.18c0.051-0.051,0.051-0.051,0.102-0.103c4.352,4.148,9.37,7.526,15.002,9.883
					c1.383,0.614,2.816,1.178,4.301,1.586c1.946,0.615,3.994,1.126,6.093,1.485c2.458,0.461,5.018,0.769,7.578,0.819
					c2.151,0.051,4.25,0,6.349-0.255c24.832-2.305,44.595-22.887,45.261-48.487c0.154-4.659-0.41-9.215-1.485-13.516
					c-1.024-4.096-2.56-7.936-4.506-11.52c16.589-5.786,29.235-20.019,32.666-37.684c0.358-1.74,0.614-3.533,0.768-5.375
					c0.103-0.973,0.154-1.946,0.205-2.97v-1.177c0-1.997-0.102-3.942-0.358-5.887v-0.053l7.219-5.017l5.171-3.635l0.051,0.051
					c0.768,1.229,1.536,2.406,2.253,3.584c0.717,1.177,1.433,2.305,2.099,3.431c0.666,1.126,1.331,2.304,1.997,3.43
					c11.059,19.61,18.227,40.909,21.248,62.925C414.259,204.185,413.798,223.539,410.163,242.79z"/>
				<path style="fill:#E95D63;" d="M407.04,211.303c0,0.307,0,0.563-0.051,0.87c0,1.639-0.051,3.379-0.154,5.069v0.614
					c-0.358,7.323-1.178,14.644-2.458,21.915c-0.205,1.177-0.461,2.355-0.666,3.533c0,0.05,0,0.05-0.051,0.05
					c-0.051,0.461-0.154,0.871-0.256,1.28c-0.154,0.769-0.307,1.537-0.461,2.305c-0.205,0.87-0.41,1.74-0.614,2.611
					c-0.051,0.306-0.154,0.665-0.205,0.973c-0.256,0.973-0.512,1.946-0.768,2.919c-0.103,0.307-0.154,0.665-0.256,0.973
					c-0.614,2.253-1.28,4.505-1.946,6.759c-0.358,1.177-0.768,2.355-1.127,3.481c-0.563,1.69-1.177,3.328-1.792,4.966
					c-0.205,0.666-0.461,1.331-0.717,1.996c-0.153,0.41-0.307,0.871-0.512,1.28c-0.512,1.333-1.075,2.613-1.638,3.943
					c-0.41,1.025-0.87,2.049-1.331,3.073c-0.461,1.024-0.922,1.997-1.383,3.021c-0.512,1.126-1.075,2.253-1.638,3.379
					c-0.563,1.075-1.075,2.15-1.69,3.277c-0.768,1.484-1.536,2.918-2.355,4.351c-0.819,1.434-1.638,2.867-2.509,4.301
					c-0.563,0.973-1.126,1.945-1.741,2.918c-0.768,1.128-1.485,2.254-2.202,3.38c-0.768,1.126-1.485,2.201-2.253,3.327
					c-0.87,1.28-1.792,2.509-2.713,3.738c-0.922,1.28-1.843,2.509-2.816,3.737c-0.871,1.128-1.741,2.203-2.662,3.329
					c-1.075,1.28-2.15,2.56-3.277,3.84c-1.126,1.28-2.253,2.509-3.379,3.789c-0.922,1.024-1.894,1.996-2.867,2.97
					c-0.614,0.614-1.178,1.228-1.792,1.842c-0.614,0.615-1.229,1.229-1.843,1.793c-0.819,0.819-1.69,1.638-2.56,2.406
					c-0.153,0.154-0.307,0.306-0.461,0.461c-0.307,0.306-0.615,0.614-0.973,0.87c-0.768,0.716-1.536,1.432-2.355,2.15
					c-0.461,0.41-0.973,0.82-1.434,1.229c-0.666,0.564-1.331,1.126-2.048,1.69c-1.075,0.87-2.099,1.741-3.226,2.611
					c-2.457,1.945-5.069,3.891-7.68,5.734c-2.048,1.434-4.147,2.867-6.247,4.147c-3.276,2.15-6.605,4.096-9.933,5.889
					c-2.816,1.586-5.632,3.02-8.499,4.351c-1.946,0.921-3.891,1.844-5.837,2.662c-1.639,0.716-3.277,1.383-4.966,2.048
					c-0.358,0.154-0.768,0.307-1.126,0.461h-0.051c-0.922,0.359-1.843,0.717-2.765,1.024c-1.741,0.666-3.533,1.28-5.273,1.844
					c-1.69,0.563-3.328,1.075-5.018,1.587h-0.051c-2.15,0.665-4.352,1.28-6.553,1.791c-1.741,0.461-3.43,0.871-5.171,1.229
					c-3.891,0.87-7.782,1.587-11.673,2.15c-1.843,0.308-3.687,0.513-5.53,0.717c-0.256,0.051-0.563,0.103-0.819,0.103
					c-1.587,0.205-3.123,0.307-4.71,0.46c-1.638,0.154-3.277,0.256-4.915,0.308c-1.229,0.102-2.509,0.154-3.789,0.154
					c-3.277,0.154-6.502,0.154-9.779,0.051c-1.178-0.051-2.355-0.103-3.482-0.154c-0.41,0-0.871-0.051-1.28-0.051
					c-0.103,0-0.205,0-0.256-0.051c-1.28-0.051-2.56-0.154-3.789-0.256c-0.409,0-0.819-0.05-1.229-0.05c-0.051,0-0.051,0-0.102,0
					c-0.563-0.052-1.127-0.103-1.69-0.205c-0.307,0-0.666,0-0.973-0.051c-0.154,0-0.256-0.051-0.41-0.051
					c-1.433-0.154-2.918-0.307-4.352-0.513c-0.154,0-0.256-0.051-0.41-0.051c-1.126-0.154-2.304-0.306-3.379-0.511
					c-0.41-0.052-0.819-0.102-1.229-0.154h-0.051c-1.178-0.205-2.304-0.41-3.431-0.615c-0.051,0-0.102,0-0.205-0.051
					c-1.075-0.154-2.15-0.358-3.277-0.614c-0.205,0-0.461-0.051-0.666-0.103c-0.922-0.205-1.894-0.41-2.816-0.615
					c-0.359-0.103-0.666-0.154-1.024-0.256h-0.051c-0.409-0.102-0.87-0.205-1.28-0.306c-1.331-0.307-2.611-0.615-3.942-0.974
					c-0.41-0.102-0.871-0.255-1.331-0.357c-0.563-0.154-1.075-0.307-1.638-0.461c-0.41-0.103-0.87-0.256-1.331-0.359
					c-1.075-0.307-2.15-0.614-3.226-0.973c-0.256-0.103-0.512-0.154-0.768-0.256c-1.127-0.359-2.304-0.716-3.431-1.126
					c-1.178-0.41-2.355-0.767-3.482-1.229c-0.512-0.154-0.973-0.306-1.485-0.511c-0.614-0.205-1.177-0.461-1.792-0.717
					c-0.665-0.256-1.331-0.513-1.945-0.767c-0.205-0.051-0.358-0.154-0.563-0.205c-0.717-0.256-1.382-0.564-2.048-0.87
					c-0.819-0.307-1.639-0.666-2.407-1.025c-1.126-0.46-2.253-0.973-3.379-1.535c-1.331-0.615-2.663-1.23-3.994-1.895
					c-1.075-0.512-2.099-1.075-3.123-1.587c-0.102-0.051-0.205-0.102-0.256-0.152c-0.512-0.258-0.973-0.512-1.434-0.769
					c-2.457-1.331-4.915-2.714-7.322-4.147c-0.563-0.359-1.126-0.665-1.69-1.075c-0.256-0.154-0.461-0.256-0.717-0.409
					c-0.461-0.258-0.922-0.564-1.382-0.82c-0.205-0.103-0.359-0.256-0.563-0.41c-0.819-0.511-1.69-1.075-2.509-1.637
					c-0.051,0-0.051-0.051-0.103-0.051c-1.075-0.769-2.15-1.434-3.174-2.201c-0.461-0.307-0.87-0.615-1.331-0.923
					c-0.103-0.102-0.205-0.154-0.307-0.256c-0.87-0.614-1.741-1.28-2.611-1.945c-1.587-1.177-3.174-2.406-4.761-3.635
					c-0.87-0.769-1.741-1.485-2.611-2.201c-0.973-0.769-1.894-1.588-2.816-2.408c-1.229-1.075-2.509-2.201-3.686-3.328
					c-0.103-0.103-0.154-0.154-0.256-0.256c-0.666-0.614-1.382-1.28-2.048-1.894c-0.41-0.41-0.819-0.82-1.229-1.23
					c-0.768-0.767-1.536-1.484-2.253-2.304h-0.051c-0.563-0.614-1.127-1.178-1.69-1.791c-0.819-0.87-1.639-1.741-2.458-2.663
					c-0.871-0.922-1.741-1.895-2.56-2.867c-0.051-0.103-0.154-0.154-0.205-0.256c-0.154-0.154-0.256-0.256-0.358-0.409
					c-0.307-0.359-0.614-0.666-0.87-1.025c-0.512-0.511-0.922-1.075-1.382-1.587c-0.308-0.357-0.615-0.716-0.871-1.125
					c-0.614-0.717-1.177-1.435-1.689-2.151c-0.871-1.075-1.69-2.201-2.56-3.276l7.117-5.018l10.24-7.169l48.026-33.689l34.663-24.27
					l0.102-0.103c0.461,0.308,0.87,0.615,1.331,0.923c0.154,0.154,0.358,0.256,0.512,0.357c0.102,0.053,0.154,0.103,0.256,0.155
					c0,0,0.051,0,0.051,0.05c0.051,0.053,0.102,0.103,0.205,0.154h0.051c0.358,0.256,0.41,0.256,2.048,1.229l1.587,0.871
					c0.256,0.154,0.512,0.256,0.768,0.409c0.051,0,0.102,0.051,0.154,0.051c0.307,0.154,0.614,0.256,0.87,0.41
					c0.717,0.359,1.434,0.666,2.202,0.972c0.666,0.308,1.331,0.513,2.048,0.769c0.051,0,0.102,0,0.154,0.05h0.051
					c2.048,0.666,4.096,1.179,6.247,1.537c2.099,0.409,4.198,0.614,6.4,0.665c3.072,0.102,6.093-0.154,9.011-0.665
					c10.906-1.844,20.48-7.783,27.136-16.18c0.051-0.051,0.051-0.051,0.102-0.103c4.352,4.148,9.37,7.526,15.002,9.883
					c1.383,0.614,2.816,1.178,4.301,1.586c1.946,0.615,3.994,1.126,6.093,1.485c2.458,0.461,5.018,0.769,7.578,0.819
					c2.151,0.051,4.25,0,6.349-0.255c24.832-2.305,44.595-22.887,45.261-48.487c0.154-4.659-0.41-9.215-1.485-13.516
					c-1.024-4.096-2.56-7.936-4.506-11.52c16.589-5.786,29.235-20.019,32.666-37.684c0.358-1.74,0.614-3.533,0.768-5.375
					c0.103-0.973,0.154-1.946,0.205-2.97v-1.177c0-1.997-0.102-3.942-0.358-5.887v-0.053l7.219-5.017
					c0.768,1.177,1.536,2.407,2.304,3.585c0,0,0,0.05,0.051,0.05c0.307,0.564,0.666,1.128,1.024,1.69
					c0.051,0.051,0.051,0.103,0.051,0.154c0.358,0.512,0.717,1.075,0.973,1.588c0.307,0.511,0.615,1.024,0.922,1.536
					c0.205,0.357,0.461,0.767,0.665,1.177c0.154,0.255,0.256,0.46,0.41,0.716v0.051c0.102,0.154,0.154,0.307,0.256,0.461
					c0.358,0.716,0.768,1.382,1.178,2.099c0.461,0.87,0.922,1.741,1.382,2.611c0.154,0.307,0.307,0.615,0.461,0.921
					c0.256,0.564,0.563,1.128,0.87,1.69c0.307,0.615,0.563,1.178,0.819,1.792c1.28,2.663,2.458,5.273,3.584,7.935
					c0.051,0.102,0.051,0.155,0.103,0.256c0.461,1.126,0.922,2.254,1.382,3.38c0.307,0.716,0.563,1.434,0.819,2.201
					c0.051,0.154,0.154,0.359,0.205,0.512c0.307,0.87,0.666,1.791,0.973,2.713c0.102,0.256,0.205,0.564,0.307,0.871
					c0.205,0.614,0.409,1.229,0.614,1.842c0.461,1.331,0.87,2.714,1.331,4.096c0.307,1.126,0.665,2.253,1.024,3.38
					c0.051,0.255,0.154,0.511,0.205,0.768c0.358,1.28,0.666,2.56,0.973,3.84c0.205,0.563,0.307,1.126,0.461,1.69
					c0.205,0.921,0.461,1.843,0.666,2.765c0.051,0.358,0.154,0.665,0.205,0.973c0.153,0.614,0.256,1.229,0.358,1.842
					c0.205,0.923,0.358,1.844,0.563,2.765c0.205,0.973,0.358,1.895,0.512,2.816c0.154,0.921,0.307,1.894,0.461,2.816
					c0.051,0.409,0.102,0.819,0.153,1.229c0.154,0.87,0.307,1.791,0.41,2.714c0.102,0.767,0.205,1.535,0.256,2.355
					c0.154,1.177,0.307,2.355,0.41,3.584c0.051,0.461,0.102,0.87,0.154,1.331c0.051,0.41,0.051,0.768,0.103,1.178
					c0.102,1.178,0.153,2.355,0.256,3.481c0,0.359,0.051,0.666,0.051,0.974c0.051,0.973,0.103,1.894,0.103,2.866
					c0.102,1.382,0.102,2.765,0.102,4.199C407.04,208.435,407.04,209.869,407.04,211.303z"/>
				<path style="fill:#E95D63;" d="M208.64,247.654c-0.768-0.306-1.485-0.614-2.202-0.972c-0.153-0.051-0.256-0.103-0.41-0.154
					c-0.153-0.102-0.307-0.154-0.461-0.256c-0.051,0-0.103-0.051-0.154-0.051c-0.256-0.152-0.512-0.255-0.768-0.409
					c-0.563-0.256-1.075-0.564-1.587-0.871c-1.639-0.973-1.69-0.973-2.048-1.229h-0.051c-0.102-0.051-0.153-0.101-0.205-0.154
					c0-0.05-0.051-0.05-0.051-0.05c-0.103-0.053-0.154-0.103-0.256-0.155c-0.154-0.101-0.358-0.204-0.512-0.306
					c-0.461-0.359-0.87-0.666-1.331-0.974l-0.051-0.05l-0.102,0.102l-34.611,24.32l-48.026,33.689l-10.24,7.169l-7.117,5.018
					l-3.277,2.253l-1.894,1.331l-16.845,11.879H76.39l-0.102,0.103h-0.051l-4.096,2.866l-3.379,2.356
					c0.819,1.125,1.638,2.15,2.458,3.225c1.075,1.383,2.15,2.765,3.226,4.148c0.665,0.767,1.28,1.485,1.997,2.304l4.557-3.174
					l3.072-2.151l11.469-8.089l5.478-3.84l1.945-1.332l3.226-2.304l5.939-4.199l2.919-2.048l94.156-65.996h0.051l1.536-1.179h0.051
					l0.051-0.05C210.125,248.166,209.357,247.961,208.64,247.654z M413.491,102.552l-0.666-1.125l-0.41-0.717l-0.358-0.563
					c-0.103-0.155-0.154-0.256-0.256-0.359c0,0-0.051-0.051-0.051-0.103c-0.512-0.769-1.024-1.588-1.485-2.406
					c-0.563-0.87-1.126-1.741-1.741-2.56l-0.103,0.103l-5.581,3.942l-1.075,0.716l-0.819,0.564l-10.24,7.219l-3.277,2.304
					l-3.379,2.355l-5.171,3.635l-7.219,5.07c0.256,1.945,0.358,3.89,0.358,5.887c-0.051,0.41-0.051,0.768-0.051,1.177
					c0,1.024-0.051,1.998-0.154,2.97c-0.154,1.842-0.409,3.635-0.768,5.375l4.096-2.815l10.138-7.118v-0.051l5.171-3.635
					l4.557-3.174l8.602-6.043l3.789-2.662h0.051l4.198-2.969l3.43-2.406C414.567,104.294,414.003,103.424,413.491,102.552z"/>
				<g>
					<path style="fill:#E95D63;" d="M155.197,309.19c-2.367,1.606-1.64,7.819,1.1,11.857c2.74,4.038,6.673,6.15,9.716,4.085
						c3.044-2.065,2.535-6.5-0.205-10.538C163.068,310.556,157.564,307.584,155.197,309.19z"/>
					<path style="fill:#E95D63;" d="M155.095,309.824c-2.093,1.469-1.324,7.057,1.209,10.667c2.533,3.61,6.101,5.475,8.793,3.586
						c2.692-1.889,2.152-5.878-0.381-9.488C162.182,310.979,157.188,308.355,155.095,309.824z"/>
					<circle style="fill:#E95D63;" cx="157.689" cy="315.774" r="2.74"/>
				</g>
				<g>
					<path style="fill:#E95D63;" d="M213.26,331.531c-2.189,1.485-1.517,7.231,1.017,10.965c2.533,3.734,6.171,5.688,8.985,3.778
						c2.815-1.909,2.344-6.011-0.189-9.745C220.539,332.794,215.449,330.046,213.26,331.531z"/>
					<path style="fill:#E95D63;" d="M213.165,332.117c-1.936,1.358-1.225,6.526,1.118,9.865c2.343,3.339,5.642,5.063,8.131,3.316
						c2.489-1.747,1.99-5.436-0.353-8.775C219.719,333.185,215.101,330.758,213.165,332.117z"/>
					<circle style="fill:#E95D63;" cx="215.564" cy="337.619" r="2.534"/>
				</g>
				<g>
					<path style="fill:#E95D63;" d="M278.991,315.349c-2.333,1.583-1.616,7.707,1.084,11.688c2.7,3.98,6.577,6.062,9.577,4.027
						c3-2.035,2.499-6.407-0.202-10.387C286.75,316.695,281.324,313.766,278.991,315.349z"/>
					<path style="fill:#E95D63;" d="M278.891,315.973c-2.064,1.448-1.306,6.956,1.191,10.515c2.497,3.559,6.014,5.397,8.667,3.535
						c2.653-1.862,2.121-5.794-0.376-9.353C285.876,317.112,280.954,314.525,278.891,315.973z"/>
					<circle style="fill:#E95D63;" cx="281.448" cy="321.839" r="2.701"/>
				</g>
				<g>
					<path style="fill:#E95D63;" d="M211.186,272.41c-2.144,1.455-1.485,7.082,0.996,10.739c2.481,3.657,6.044,5.57,8.8,3.7
						c2.757-1.87,2.296-5.887-0.186-9.545C218.315,273.648,213.33,270.956,211.186,272.41z"/>
					<path style="fill:#E95D63;" d="M211.093,272.984c-1.896,1.33-1.2,6.392,1.095,9.662c2.294,3.27,5.526,4.959,7.964,3.248
						c2.438-1.711,1.949-5.324-0.345-8.594S212.989,271.654,211.093,272.984z"/>
					<circle style="fill:#E95D63;" cx="213.443" cy="278.374" r="2.482"/>
				</g>
				<g>
					<path style="fill:#E95D63;" d="M271.356,244.713c-2.326,1.578-1.612,7.684,1.081,11.652c2.692,3.968,6.557,6.044,9.548,4.015
						c2.991-2.029,2.491-6.388-0.201-10.356C279.091,246.056,273.682,243.135,271.356,244.713z"/>
					<path style="fill:#E95D63;" d="M271.255,245.336c-2.057,1.443-1.302,6.935,1.188,10.483c2.49,3.548,5.996,5.38,8.641,3.524
						c2.645-1.856,2.115-5.777-0.375-9.325C278.22,246.471,273.313,243.893,271.255,245.336z"/>
					<circle style="fill:#E95D63;" cx="273.805" cy="251.184" r="2.693"/>
				</g>
				<g>
					<path style="fill:#E95D63;" d="M331.253,272.374c-2.055,1.389-1.137,7.187,1.493,11.053s6.25,5.994,8.893,4.207
						c2.643-1.786,1.996-5.925-0.634-9.79C338.374,273.979,333.308,270.985,331.253,272.374z"/>
					<path style="fill:#E95D63;" d="M331.189,272.958c-1.816,1.274-0.887,6.494,1.54,9.953c2.427,3.46,5.708,5.342,8.043,3.705
						c2.334-1.638,1.68-5.364-0.748-8.823C337.597,274.333,333.004,271.684,331.189,272.958z"/>
					
						<ellipse transform="matrix(0.8186 -0.5744 0.5744 0.8186 -99.4676 242.2493)" style="fill:#E95D63;" cx="333.771" cy="278.592" rx="2.376" ry="2.625"/>
				</g>
				<g>
					<path style="fill:#E95D63;" d="M367.033,154.744c-2.209,1.498-1.53,7.295,1.026,11.063c2.556,3.768,6.226,5.738,9.066,3.812
						c2.84-1.927,2.365-6.065-0.191-9.832C374.377,156.019,369.241,153.245,367.033,154.744z"/>
					<path style="fill:#E95D63;" d="M366.937,155.335c-1.953,1.37-1.236,6.585,1.128,9.953c2.364,3.369,5.693,5.108,8.204,3.346
						c2.511-1.762,2.008-5.484-0.356-8.853C373.55,156.413,368.891,153.964,366.937,155.335z"/>
					<circle style="fill:#E95D63;" cx="369.358" cy="160.887" r="2.557"/>
				</g>
				<g>
					<path style="fill:#E95D63;" d="M365.861,227.172c-2.433,1.65-1.685,8.035,1.13,12.184c2.815,4.15,6.857,6.32,9.984,4.198
						c3.128-2.122,2.605-6.68-0.211-10.829C373.949,228.576,368.293,225.521,365.861,227.172z"/>
					<path style="fill:#E95D63;" d="M365.756,227.823c-2.151,1.51-1.361,7.252,1.242,10.962c2.603,3.71,6.27,5.626,9.036,3.685
						c2.766-1.941,2.211-6.04-0.392-9.75C373.038,229.01,367.907,226.313,365.756,227.823z"/>
					<circle style="fill:#E95D63;" cx="368.422" cy="233.937" r="2.816"/>
				</g>
				<path style="fill:#E95D63;" d="M206.438,246.681l-0.051,0.051l-1.126,0.768l-93.338,65.485l-3.225,2.305l-5.069,3.533
					l-0.051,0.05l-5.12,3.636l-16.896,11.826c-0.154-0.204-0.358-0.409-0.512-0.563c-0.051-0.051-0.103-0.102-0.103-0.154
					c-0.051,0-0.051-0.051-0.051-0.051l-0.051-0.051c-0.051-0.051-0.051-0.051-0.103-0.103c-1.587-1.791-3.072-3.635-4.506-5.529
					c0-0.053-0.051-0.053-0.051-0.103l29.287-20.582l56.473-39.578l0.051-0.051l36.403-25.499v-0.05l0.103-0.051
					c0,0.051,0.051,0.051,0.051,0.051l0.051,0.05c0.461,0.308,0.87,0.615,1.331,0.923c0.154,0.154,0.358,0.256,0.512,0.357
					c0.102,0.053,0.154,0.103,0.256,0.155c0,0,0.051,0,0.051,0.05c0.102,0.053,0.154,0.103,0.256,0.154
					c0.358,0.256,0.41,0.256,2.048,1.229l1.587,0.871c0.256,0.154,0.512,0.256,0.768,0.409c0.051,0,0.102,0.051,0.154,0.051
					C205.875,246.425,206.182,246.527,206.438,246.681z"/>
				<path style="fill:#E95D63;" d="M406.016,106.7l-0.614,0.41l-16.947,11.879l-5.171,3.635h-0.051l-7.987,5.631l-3.431,2.408
					c0.103-0.973,0.154-1.946,0.205-2.97v-1.177c0-1.997-0.102-3.942-0.358-5.887v-0.053c0-0.05,0-0.102,0-0.102l29.901-20.991
					l0.154-0.103c0,0.051,0,0.051,0.051,0.103c0.768,1.229,1.536,2.457,2.253,3.686C404.685,104.345,405.35,105.522,406.016,106.7z"
					/>
			</g>
			<g>
				<path style="fill:#399C56;" d="M378.931,360.09c-5.069,4.813-10.445,9.42-16.077,13.823c-2.56,1.997-5.171,3.892-7.885,5.786
					c-9.114,6.4-18.586,11.93-28.263,16.691c-2.253,1.075-4.557,2.15-6.861,3.175c-62.157,27.596-133.427,22.374-190.464-11.573
					c-19.661-11.672-37.581-26.777-52.941-45.158v-0.051c-0.717-0.819-1.331-1.536-1.997-2.304
					c-1.075-1.383-2.151-2.765-3.226-4.148c-0.819-1.075-1.638-2.1-2.458-3.225l3.379-2.356l4.096-2.866h0.051l0.102-0.103h0.051
					c1.229,1.638,2.458,3.225,3.687,4.813c0.205,0.307,0.41,0.563,0.614,0.819c0.051,0.051,0.051,0.051,0.103,0.103l0.051,0.051
					c0,0.051,0.051,0.051,0.051,0.051c0,0.051,0.051,0.103,0.103,0.154c0.153,0.154,0.358,0.359,0.512,0.563
					c0.768,1.076,1.638,2.1,2.509,3.124c1.843,2.201,3.738,4.353,5.683,6.451c2.048,2.253,4.147,4.455,6.298,6.605
					c1.894,1.895,3.84,3.737,5.786,5.477c2.048,1.895,4.147,3.739,6.246,5.53c0.358,0.307,0.717,0.615,1.024,0.87
					c1.843,1.485,3.686,3.021,5.581,4.455c4.659,3.584,9.421,6.913,14.285,10.035c0.819,0.564,1.69,1.075,2.56,1.639
					c0.461,0.256,0.819,0.511,1.229,0.716c8.602,5.223,17.511,9.729,26.675,13.518c0.717,0.307,1.433,0.615,2.15,0.921
					c0.051,0,0.051,0,0.051,0c1.536,0.615,3.072,1.229,4.659,1.793c1.638,0.614,3.277,1.229,4.966,1.791
					c8.55,2.97,17.306,5.274,26.214,7.015c0.307,0.103,0.563,0.154,0.819,0.205c0.512,0.102,1.024,0.205,1.587,0.255
					c0.973,0.205,1.945,0.359,2.918,0.513c0.615,0.154,1.331,0.256,1.997,0.359c1.843,0.306,3.738,0.564,5.683,0.819
					c1.587,0.205,3.175,0.359,4.762,0.564c1.997,0.204,3.942,0.359,5.939,0.511c3.021,0.205,5.99,0.359,9.063,0.461
					c0.256,0,0.563,0.051,0.87,0.051c1.382,0,2.816,0.051,4.25,0.051c1.382,0,2.765,0,4.198-0.051c1.024,0,2.048-0.051,3.072-0.051
					c0.205,0,0.461-0.051,0.666-0.051c0.666,0,1.28-0.051,1.946-0.051c0.256,0,0.512-0.051,0.717-0.051
					c1.229-0.051,2.406-0.154,3.533-0.205c0.409-0.051,0.768-0.051,1.178-0.103c0.87-0.05,1.792-0.152,2.663-0.205
					c0.614-0.05,1.177-0.103,1.792-0.204c1.741-0.154,3.482-0.307,5.223-0.564c4.71-0.563,9.421-1.331,14.08-2.253
					c3.635-0.717,7.27-1.536,10.854-2.509c1.024-0.256,2.099-0.512,3.174-0.819c1.075-0.307,2.202-0.564,3.277-0.974
					c0.051,0.051,0.154,0,0.256-0.051c1.075-0.307,2.15-0.614,3.226-0.972c0.512-0.154,1.024-0.308,1.587-0.513
					c0.717-0.205,1.433-0.409,2.15-0.665c0.614-0.205,1.28-0.461,1.894-0.665c0.666-0.256,1.331-0.461,1.997-0.717
					c0.717-0.256,1.382-0.513,2.099-0.768c1.075-0.41,2.099-0.82,3.174-1.23c2.151-0.819,4.25-1.689,6.349-2.61
					c0,0,0.051,0,0.051-0.051c0.921-0.359,1.792-0.769,2.714-1.179c0.307-0.152,0.666-0.306,0.973-0.46
					c0.819-0.359,1.638-0.767,2.509-1.126c0.103-0.051,0.153-0.103,0.256-0.154c0.614-0.256,1.229-0.563,1.792-0.87
					c0.409-0.154,0.768-0.359,1.177-0.564c1.024-0.511,2.048-1.075,3.123-1.588c0.87-0.46,1.69-0.87,2.56-1.381
					c0.563-0.307,1.127-0.615,1.69-0.974c3.635-1.945,7.27-4.096,10.803-6.349c0.563-0.357,1.075-0.665,1.639-1.075
					c0.614-0.359,1.229-0.768,1.843-1.178c0.666-0.41,1.331-0.922,1.997-1.382c0.717-0.461,1.383-0.921,2.048-1.383
					c2.713-1.895,5.376-3.891,7.987-5.939c0.973-0.769,1.996-1.536,2.969-2.304c0,0,0-0.053,0.051-0.053
					c0.41-0.357,0.87-0.716,1.28-1.024c1.741-1.434,3.379-2.866,5.017-4.3c1.331-1.179,2.611-2.356,3.891-3.534
					c2.97-2.713,5.786-5.529,8.499-8.396c1.997-2.049,3.942-4.147,5.786-6.298c0.666-0.769,1.28-1.485,1.894-2.252
					c6.963-8.141,13.107-16.743,18.534-25.754c0.307-0.461,0.563-0.87,0.768-1.331c0.666-1.075,1.331-2.201,1.946-3.329
					c0.359-0.614,0.717-1.228,1.024-1.791c1.075-1.996,2.15-3.994,3.174-5.991c0.512-1.024,1.024-2.099,1.536-3.122
					c0.819-1.587,1.536-3.225,2.253-4.813c3.584-7.783,6.605-15.821,9.063-23.962c0.051-0.205,0.154-0.46,0.205-0.716
					c0.205-0.716,0.461-1.434,0.666-2.201c1.229-4.25,2.304-8.5,3.226-12.8c0.154-0.666,0.307-1.331,0.41-1.997
					c0.102-0.41,0.205-0.768,0.256-1.126c0.154-0.716,0.307-1.434,0.461-2.15c0.409-2.201,0.768-4.404,1.126-6.605
					c0.512-3.43,0.973-6.861,1.331-10.291c0.205-1.842,0.359-3.686,0.512-5.58c0.051-1.025,0.154-2.1,0.205-3.175
					c0.051-0.973,0.102-1.895,0.153-2.868v-1.177c0.103-1.639,0.154-3.277,0.154-4.915c0.051-0.256,0.051-0.512,0-0.767
					c0.032-1.1,0.008-2.215,0-3.329c-0.005-0.651,0.019-1.304,0-1.946v-0.665c-0.051-2.201-0.102-4.403-0.256-6.605
					c-0.103-2.252-0.256-4.556-0.512-6.86c-0.052-0.689-0.143-1.377-0.207-2.066c-0.051-0.659-0.102-1.269-0.203-1.928
					c-0.051-0.717-0.103-1.434-0.205-2.151c-0.102-0.716-0.153-1.485-0.307-2.253c-0.153-1.229-0.307-2.509-0.512-3.789
					c-0.205-1.229-0.41-2.509-0.614-3.738c-0.256-1.588-0.512-3.174-0.871-4.71c-0.051-0.461-0.153-0.871-0.256-1.28
					c-0.358-1.997-0.768-3.942-1.28-5.889c-0.41-1.842-0.87-3.686-1.382-5.478c-0.922-3.585-1.997-7.117-3.123-10.65
					c-0.154-0.461-0.359-0.973-0.512-1.434c-0.051-0.205-0.103-0.409-0.205-0.564c-0.307-1.075-0.666-2.099-1.075-3.122
					c-0.461-1.434-1.024-2.868-1.587-4.301c-1.024-2.714-2.099-5.376-3.277-8.039c-0.358-0.819-0.768-1.689-1.126-2.56
					c-0.051-0.05-0.102-0.152-0.102-0.204c-0.256-0.615-0.563-1.177-0.819-1.792c-2.202-4.761-4.608-9.369-7.219-13.978
					c-0.307-0.564-0.614-1.075-0.922-1.639c-0.102-0.153-0.205-0.255-0.256-0.409c-0.564-1.024-1.178-1.998-1.792-3.021
					c-0.666-1.126-1.382-2.253-2.099-3.379c-0.819-1.229-1.587-2.459-2.355-3.636v-0.05l0.819-0.564l1.075-0.716l5.581-3.942
					l0.103-0.103c0.614,0.819,1.177,1.69,1.741,2.56c0.461,0.819,0.973,1.638,1.485,2.406c0,0.051,0.051,0.103,0.051,0.103
					c0.103,0.102,0.154,0.204,0.256,0.359l0.358,0.563l0.41,0.717l0.666,1.125c0.512,0.871,1.075,1.741,1.587,2.613
					c2.407,4.146,4.659,8.294,6.707,12.544c8.346,16.794,14.182,34.355,17.664,52.173c0.051,0.205,0.103,0.41,0.103,0.614
					C452.608,238.643,430.848,310.733,378.931,360.09z"/>
				<path style="fill:#F2F9F3;" d="M400.928,100.076c59.341,89.262,36.957,210.073-51.295,271.997
					c-88.239,61.915-209.459,41.866-273.211-44.3l22.046-15.469c55.126,73.872,159.76,91.025,235.705,37.736
					c75.958-53.298,95.422-157.527,44.708-234.495L400.928,100.076z"/>
				<path style="fill:#FDEFD1;" d="M410.163,242.79c-8.653,45.773-34.355,85.658-72.448,112.333
					c-7.527,5.274-15.36,9.932-23.501,13.978c-32.819,16.18-69.888,21.811-106.752,15.924
					c-41.83-6.759-79.207-27.699-106.445-59.494c-0.871-0.974-1.741-1.997-2.56-3.021c-1.741-2.151-3.431-4.301-5.12-6.503
					l-0.051-0.051v-0.051l1.894-1.331l3.277-2.253l7.117-5.018l10.24-7.169l48.026-33.689l34.663-24.27l0.102-0.103
					c0.461,0.308,0.87,0.615,1.331,0.923c0.154,0.154,0.358,0.256,0.512,0.357c0.102,0.053,0.154,0.103,0.256,0.155
					c0,0,0.051,0,0.051,0.05c0.051,0.053,0.102,0.103,0.205,0.154h0.051c0.358,0.256,0.41,0.256,2.048,1.229l1.587,0.871
					c0.256,0.154,0.512,0.256,0.768,0.409c0.051,0,0.102,0.051,0.154,0.051c0.307,0.154,0.614,0.256,0.87,0.41
					c0.717,0.359,1.434,0.666,2.202,0.972c0.666,0.308,1.331,0.513,2.048,0.769c0.051,0,0.102,0,0.154,0.05h0.051
					c2.048,0.666,4.096,1.179,6.247,1.537c2.099,0.409,4.198,0.614,6.4,0.665c3.072,0.102,6.093-0.154,9.011-0.665
					c10.906-1.844,20.48-7.783,27.136-16.18c0.051-0.051,0.051-0.051,0.102-0.103c4.352,4.148,9.37,7.526,15.002,9.883
					c1.383,0.614,2.816,1.178,4.301,1.586c1.946,0.615,3.994,1.126,6.093,1.485c2.458,0.461,5.018,0.769,7.578,0.819
					c2.151,0.051,4.25,0,6.349-0.255c24.832-2.305,44.595-22.887,45.261-48.487c0.154-4.659-0.41-9.215-1.485-13.516
					c-1.024-4.096-2.56-7.936-4.506-11.52c16.589-5.786,29.235-20.019,32.666-37.684c0.358-1.74,0.614-3.533,0.768-5.375
					c0.103-0.973,0.154-1.946,0.205-2.97v-1.177c0-1.997-0.102-3.942-0.358-5.887v-0.053l7.219-5.017l5.171-3.635l0.051,0.051
					c0.768,1.229,1.536,2.406,2.253,3.584c0.717,1.177,1.433,2.305,2.099,3.431c0.666,1.126,1.331,2.304,1.997,3.43
					c11.059,19.61,18.227,40.909,21.248,62.925C414.259,204.185,413.798,223.539,410.163,242.79z"/>
				<path style="fill:#E95D63;" d="M407.04,211.303c0,0.307,0,0.563-0.051,0.87c0,1.639-0.051,3.379-0.154,5.069v0.614
					c-0.358,7.323-1.178,14.644-2.458,21.915c-0.205,1.177-0.461,2.355-0.666,3.533c0,0.05,0,0.05-0.051,0.05
					c-0.051,0.461-0.154,0.871-0.256,1.28c-0.154,0.769-0.307,1.537-0.461,2.305c-0.205,0.87-0.41,1.74-0.614,2.611
					c-0.051,0.306-0.154,0.665-0.205,0.973c-0.256,0.973-0.512,1.946-0.768,2.919c-0.103,0.307-0.154,0.665-0.256,0.973
					c-0.614,2.253-1.28,4.505-1.946,6.759c-0.358,1.177-0.768,2.355-1.127,3.481c-0.563,1.69-1.177,3.328-1.792,4.966
					c-0.205,0.666-0.461,1.331-0.717,1.996c-0.153,0.41-0.307,0.871-0.512,1.28c-0.512,1.333-1.075,2.613-1.638,3.943
					c-0.41,1.025-0.87,2.049-1.331,3.073c-0.461,1.024-0.922,1.997-1.383,3.021c-0.512,1.126-1.075,2.253-1.638,3.379
					c-0.563,1.075-1.075,2.15-1.69,3.277c-0.768,1.484-1.536,2.918-2.355,4.351c-0.819,1.434-1.638,2.867-2.509,4.301
					c-0.563,0.973-1.126,1.945-1.741,2.918c-0.768,1.128-1.485,2.254-2.202,3.38c-0.768,1.126-1.485,2.201-2.253,3.327
					c-0.87,1.28-1.792,2.509-2.713,3.738c-0.922,1.28-1.843,2.509-2.816,3.737c-0.871,1.128-1.741,2.203-2.662,3.329
					c-1.075,1.28-2.15,2.56-3.277,3.84c-1.126,1.28-2.253,2.509-3.379,3.789c-0.922,1.024-1.894,1.996-2.867,2.97
					c-0.614,0.614-1.178,1.228-1.792,1.842c-0.614,0.615-1.229,1.229-1.843,1.793c-0.819,0.819-1.69,1.638-2.56,2.406
					c-0.153,0.154-0.307,0.306-0.461,0.461c-0.307,0.306-0.615,0.614-0.973,0.87c-0.768,0.716-1.536,1.432-2.355,2.15
					c-0.461,0.41-0.973,0.82-1.434,1.229c-0.666,0.564-1.331,1.126-2.048,1.69c-1.075,0.87-2.099,1.741-3.226,2.611
					c-2.457,1.945-5.069,3.891-7.68,5.734c-2.048,1.434-4.147,2.867-6.247,4.147c-3.276,2.15-6.605,4.096-9.933,5.889
					c-2.816,1.586-5.632,3.02-8.499,4.351c-1.946,0.921-3.891,1.844-5.837,2.662c-1.639,0.716-3.277,1.383-4.966,2.048
					c-0.358,0.154-0.768,0.307-1.126,0.461h-0.051c-0.922,0.359-1.843,0.717-2.765,1.024c-1.741,0.666-3.533,1.28-5.273,1.844
					c-1.69,0.563-3.328,1.075-5.018,1.587h-0.051c-2.15,0.665-4.352,1.28-6.553,1.791c-1.741,0.461-3.43,0.871-5.171,1.229
					c-3.891,0.87-7.782,1.587-11.673,2.15c-1.843,0.308-3.687,0.513-5.53,0.717c-0.256,0.051-0.563,0.103-0.819,0.103
					c-1.587,0.205-3.123,0.307-4.71,0.46c-1.638,0.154-3.277,0.256-4.915,0.308c-1.229,0.102-2.509,0.154-3.789,0.154
					c-3.277,0.154-6.502,0.154-9.779,0.051c-1.178-0.051-2.355-0.103-3.482-0.154c-0.41,0-0.871-0.051-1.28-0.051
					c-0.103,0-0.205,0-0.256-0.051c-1.28-0.051-2.56-0.154-3.789-0.256c-0.409,0-0.819-0.05-1.229-0.05c-0.051,0-0.051,0-0.102,0
					c-0.563-0.052-1.127-0.103-1.69-0.205c-0.307,0-0.666,0-0.973-0.051c-0.154,0-0.256-0.051-0.41-0.051
					c-1.433-0.154-2.918-0.307-4.352-0.513c-0.154,0-0.256-0.051-0.41-0.051c-1.126-0.154-2.304-0.306-3.379-0.511
					c-0.41-0.052-0.819-0.102-1.229-0.154h-0.051c-1.178-0.205-2.304-0.41-3.431-0.615c-0.051,0-0.102,0-0.205-0.051
					c-1.075-0.154-2.15-0.358-3.277-0.614c-0.205,0-0.461-0.051-0.666-0.103c-0.922-0.205-1.894-0.41-2.816-0.615
					c-0.359-0.103-0.666-0.154-1.024-0.256h-0.051c-0.409-0.102-0.87-0.205-1.28-0.306c-1.331-0.307-2.611-0.615-3.942-0.974
					c-0.41-0.102-0.871-0.255-1.331-0.357c-0.563-0.154-1.075-0.307-1.638-0.461c-0.41-0.103-0.87-0.256-1.331-0.359
					c-1.075-0.307-2.15-0.614-3.226-0.973c-0.256-0.103-0.512-0.154-0.768-0.256c-1.127-0.359-2.304-0.716-3.431-1.126
					c-1.178-0.41-2.355-0.767-3.482-1.229c-0.512-0.154-0.973-0.306-1.485-0.511c-0.614-0.205-1.177-0.461-1.792-0.717
					c-0.665-0.256-1.331-0.513-1.945-0.767c-0.205-0.051-0.358-0.154-0.563-0.205c-0.717-0.256-1.382-0.564-2.048-0.87
					c-0.819-0.307-1.639-0.666-2.407-1.025c-1.126-0.46-2.253-0.973-3.379-1.535c-1.331-0.615-2.663-1.23-3.994-1.895
					c-1.075-0.512-2.099-1.075-3.123-1.587c-0.102-0.051-0.205-0.102-0.256-0.152c-0.512-0.258-0.973-0.512-1.434-0.769
					c-2.457-1.331-4.915-2.714-7.322-4.147c-0.563-0.359-1.126-0.665-1.69-1.075c-0.256-0.154-0.461-0.256-0.717-0.409
					c-0.461-0.258-0.922-0.564-1.382-0.82c-0.205-0.103-0.359-0.256-0.563-0.41c-0.819-0.511-1.69-1.075-2.509-1.637
					c-0.051,0-0.051-0.051-0.103-0.051c-1.075-0.769-2.15-1.434-3.174-2.201c-0.461-0.307-0.87-0.615-1.331-0.923
					c-0.103-0.102-0.205-0.154-0.307-0.256c-0.87-0.614-1.741-1.28-2.611-1.945c-1.587-1.177-3.174-2.406-4.761-3.635
					c-0.87-0.769-1.741-1.485-2.611-2.201c-0.973-0.769-1.894-1.588-2.816-2.408c-1.229-1.075-2.509-2.201-3.686-3.328
					c-0.103-0.103-0.154-0.154-0.256-0.256c-0.666-0.614-1.382-1.28-2.048-1.894c-0.41-0.41-0.819-0.82-1.229-1.23
					c-0.768-0.767-1.536-1.484-2.253-2.304h-0.051c-0.563-0.614-1.127-1.178-1.69-1.791c-0.819-0.87-1.639-1.741-2.458-2.663
					c-0.871-0.922-1.741-1.895-2.56-2.867c-0.051-0.103-0.154-0.154-0.205-0.256c-0.154-0.154-0.256-0.256-0.358-0.409
					c-0.307-0.359-0.614-0.666-0.87-1.025c-0.512-0.511-0.922-1.075-1.382-1.587c-0.308-0.357-0.615-0.716-0.871-1.125
					c-0.614-0.717-1.177-1.435-1.689-2.151c-0.871-1.075-1.69-2.201-2.56-3.276l7.117-5.018l10.24-7.169l48.026-33.689l34.663-24.27
					l0.102-0.103c0.461,0.308,0.87,0.615,1.331,0.923c0.154,0.154,0.358,0.256,0.512,0.357c0.102,0.053,0.154,0.103,0.256,0.155
					c0,0,0.051,0,0.051,0.05c0.051,0.053,0.102,0.103,0.205,0.154h0.051c0.358,0.256,0.41,0.256,2.048,1.229l1.587,0.871
					c0.256,0.154,0.512,0.256,0.768,0.409c0.051,0,0.102,0.051,0.154,0.051c0.307,0.154,0.614,0.256,0.87,0.41
					c0.717,0.359,1.434,0.666,2.202,0.972c0.666,0.308,1.331,0.513,2.048,0.769c0.051,0,0.102,0,0.154,0.05h0.051
					c2.048,0.666,4.096,1.179,6.247,1.537c2.099,0.409,4.198,0.614,6.4,0.665c3.072,0.102,6.093-0.154,9.011-0.665
					c10.906-1.844,20.48-7.783,27.136-16.18c0.051-0.051,0.051-0.051,0.102-0.103c4.352,4.148,9.37,7.526,15.002,9.883
					c1.383,0.614,2.816,1.178,4.301,1.586c1.946,0.615,3.994,1.126,6.093,1.485c2.458,0.461,5.018,0.769,7.578,0.819
					c2.151,0.051,4.25,0,6.349-0.255c24.832-2.305,44.595-22.887,45.261-48.487c0.154-4.659-0.41-9.215-1.485-13.516
					c-1.024-4.096-2.56-7.936-4.506-11.52c16.589-5.786,29.235-20.019,32.666-37.684c0.358-1.74,0.614-3.533,0.768-5.375
					c0.103-0.973,0.154-1.946,0.205-2.97v-1.177c0-1.997-0.102-3.942-0.358-5.887v-0.053l7.219-5.017
					c0.768,1.177,1.536,2.407,2.304,3.585c0,0,0,0.05,0.051,0.05c0.307,0.564,0.666,1.128,1.024,1.69
					c0.051,0.051,0.051,0.103,0.051,0.154c0.358,0.512,0.717,1.075,0.973,1.588c0.307,0.511,0.615,1.024,0.922,1.536
					c0.205,0.357,0.461,0.767,0.665,1.177c0.154,0.255,0.256,0.46,0.41,0.716v0.051c0.102,0.154,0.154,0.307,0.256,0.461
					c0.358,0.716,0.768,1.382,1.178,2.099c0.461,0.87,0.922,1.741,1.382,2.611c0.154,0.307,0.307,0.615,0.461,0.921
					c0.256,0.564,0.563,1.128,0.87,1.69c0.307,0.615,0.563,1.178,0.819,1.792c1.28,2.663,2.458,5.273,3.584,7.935
					c0.051,0.102,0.051,0.155,0.103,0.256c0.461,1.126,0.922,2.254,1.382,3.38c0.307,0.716,0.563,1.434,0.819,2.201
					c0.051,0.154,0.154,0.359,0.205,0.512c0.307,0.87,0.666,1.791,0.973,2.713c0.102,0.256,0.205,0.564,0.307,0.871
					c0.205,0.614,0.409,1.229,0.614,1.842c0.461,1.331,0.87,2.714,1.331,4.096c0.307,1.126,0.665,2.253,1.024,3.38
					c0.051,0.255,0.154,0.511,0.205,0.768c0.358,1.28,0.666,2.56,0.973,3.84c0.205,0.563,0.307,1.126,0.461,1.69
					c0.205,0.921,0.461,1.843,0.666,2.765c0.051,0.358,0.154,0.665,0.205,0.973c0.153,0.614,0.256,1.229,0.358,1.842
					c0.205,0.923,0.358,1.844,0.563,2.765c0.205,0.973,0.358,1.895,0.512,2.816c0.154,0.921,0.307,1.894,0.461,2.816
					c0.051,0.409,0.102,0.819,0.153,1.229c0.154,0.87,0.307,1.791,0.41,2.714c0.102,0.767,0.205,1.535,0.256,2.355
					c0.154,1.177,0.307,2.355,0.41,3.584c0.051,0.461,0.102,0.87,0.154,1.331c0.051,0.41,0.051,0.768,0.103,1.178
					c0.102,1.178,0.153,2.355,0.256,3.481c0,0.359,0.051,0.666,0.051,0.974c0.051,0.973,0.103,1.894,0.103,2.866
					c0.102,1.382,0.102,2.765,0.102,4.199C407.04,208.435,407.04,209.869,407.04,211.303z"/>
				<path style="opacity:0.2;fill:#FEF8F9;" d="M208.64,247.654c-0.768-0.306-1.485-0.614-2.202-0.972
					c-0.153-0.051-0.256-0.103-0.41-0.154c-0.153-0.102-0.307-0.154-0.461-0.256c-0.051,0-0.103-0.051-0.154-0.051
					c-0.256-0.152-0.512-0.255-0.768-0.409c-0.563-0.256-1.075-0.564-1.587-0.871c-1.639-0.973-1.69-0.973-2.048-1.229h-0.051
					c-0.102-0.051-0.153-0.101-0.205-0.154c0-0.05-0.051-0.05-0.051-0.05c-0.103-0.053-0.154-0.103-0.256-0.155
					c-0.154-0.101-0.358-0.204-0.512-0.306c-0.461-0.359-0.87-0.666-1.331-0.974l-0.051-0.05l-0.102,0.102l-34.611,24.32
					l-48.026,33.689l-10.24,7.169l-7.117,5.018l-3.277,2.253l-1.894,1.331l-16.845,11.879H76.39l-0.102,0.103h-0.051l-4.096,2.866
					l-3.379,2.356c0.819,1.125,1.638,2.15,2.458,3.225c1.075,1.383,2.15,2.765,3.226,4.148c0.665,0.767,1.28,1.485,1.997,2.304
					l4.557-3.174l3.072-2.151l11.469-8.089l5.478-3.84l1.945-1.332l3.226-2.304l5.939-4.199l2.919-2.048l94.156-65.996h0.051
					l1.536-1.179h0.051l0.051-0.05C210.125,248.166,209.357,247.961,208.64,247.654z M413.491,102.552l-0.666-1.125l-0.41-0.717
					l-0.358-0.563c-0.103-0.155-0.154-0.256-0.256-0.359c0,0-0.051-0.051-0.051-0.103c-0.512-0.769-1.024-1.588-1.485-2.406
					c-0.563-0.87-1.126-1.741-1.741-2.56l-0.103,0.103l-5.581,3.942l-1.075,0.716l-0.819,0.564l-10.24,7.219l-3.277,2.304
					l-3.379,2.355l-5.171,3.635l-7.219,5.07c0.256,1.945,0.358,3.89,0.358,5.887c-0.051,0.41-0.051,0.768-0.051,1.177
					c0,1.024-0.051,1.998-0.154,2.97c-0.154,1.842-0.409,3.635-0.768,5.375l4.096-2.815l10.138-7.118v-0.051l5.171-3.635
					l4.557-3.174l8.602-6.043l3.789-2.662h0.051l4.198-2.969l3.43-2.406C414.567,104.294,414.003,103.424,413.491,102.552z"/>
				<g>
					<path style="opacity:0.2;fill:#FFFFFF;" d="M155.197,309.19c-2.367,1.606-1.64,7.819,1.1,11.857
						c2.74,4.038,6.673,6.15,9.716,4.085c3.044-2.065,2.535-6.5-0.205-10.538C163.068,310.556,157.564,307.584,155.197,309.19z"/>
					<path style="fill:#383838;" d="M155.095,309.824c-2.093,1.469-1.324,7.057,1.209,10.667c2.533,3.61,6.101,5.475,8.793,3.586
						c2.692-1.889,2.152-5.878-0.381-9.488C162.182,310.979,157.188,308.355,155.095,309.824z"/>
					<circle style="opacity:0.3;fill:#484747;" cx="157.689" cy="315.774" r="2.74"/>
				</g>
				<g>
					<path style="opacity:0.2;fill:#FFFFFF;" d="M213.26,331.531c-2.189,1.485-1.517,7.231,1.017,10.965
						c2.533,3.734,6.171,5.688,8.985,3.778c2.815-1.909,2.344-6.011-0.189-9.745C220.539,332.794,215.449,330.046,213.26,331.531z"
						/>
					<path style="fill:#383838;" d="M213.165,332.117c-1.936,1.358-1.225,6.526,1.118,9.865c2.343,3.339,5.642,5.063,8.131,3.316
						c2.489-1.747,1.99-5.436-0.353-8.775C219.719,333.185,215.101,330.758,213.165,332.117z"/>
					<circle style="opacity:0.3;fill:#484747;" cx="215.564" cy="337.619" r="2.534"/>
				</g>
				<g>
					<path style="opacity:0.2;fill:#FFFFFF;" d="M278.991,315.349c-2.333,1.583-1.616,7.707,1.084,11.688
						c2.7,3.98,6.577,6.062,9.577,4.027c3-2.035,2.499-6.407-0.202-10.387C286.75,316.695,281.324,313.766,278.991,315.349z"/>
					<path style="fill:#383838;" d="M278.891,315.973c-2.064,1.448-1.306,6.956,1.191,10.515c2.497,3.559,6.014,5.397,8.667,3.535
						c2.653-1.862,2.121-5.794-0.376-9.353C285.876,317.112,280.954,314.525,278.891,315.973z"/>
					<circle style="opacity:0.3;fill:#484747;" cx="281.448" cy="321.839" r="2.701"/>
				</g>
				<g>
					<path style="opacity:0.2;fill:#FFFFFF;" d="M211.186,272.41c-2.144,1.455-1.485,7.082,0.996,10.739
						c2.481,3.657,6.044,5.57,8.8,3.7c2.757-1.87,2.296-5.887-0.186-9.545C218.315,273.648,213.33,270.956,211.186,272.41z"/>
					<path style="fill:#383838;" d="M211.093,272.984c-1.896,1.33-1.2,6.392,1.095,9.662c2.294,3.27,5.526,4.959,7.964,3.248
						c2.438-1.711,1.949-5.324-0.345-8.594S212.989,271.654,211.093,272.984z"/>
					<circle style="opacity:0.3;fill:#484747;" cx="213.443" cy="278.374" r="2.482"/>
				</g>
				<g>
					<path style="opacity:0.2;fill:#FFFFFF;" d="M271.356,244.713c-2.326,1.578-1.612,7.684,1.081,11.652
						c2.692,3.968,6.557,6.044,9.548,4.015c2.991-2.029,2.491-6.388-0.201-10.356C279.091,246.056,273.682,243.135,271.356,244.713z
						"/>
					<path style="fill:#383838;" d="M271.255,245.336c-2.057,1.443-1.302,6.935,1.188,10.483c2.49,3.548,5.996,5.38,8.641,3.524
						c2.645-1.856,2.115-5.777-0.375-9.325C278.22,246.471,273.313,243.893,271.255,245.336z"/>
					<circle style="opacity:0.3;fill:#484747;" cx="273.805" cy="251.184" r="2.693"/>
				</g>
				<g>
					<path style="opacity:0.2;fill:#FFFFFF;" d="M331.253,272.374c-2.055,1.389-1.137,7.187,1.493,11.053s6.25,5.994,8.893,4.207
						c2.643-1.786,1.996-5.925-0.634-9.79C338.374,273.979,333.308,270.985,331.253,272.374z"/>
					<path style="fill:#383838;" d="M331.189,272.958c-1.816,1.274-0.887,6.494,1.54,9.953c2.427,3.46,5.708,5.342,8.043,3.705
						c2.334-1.638,1.68-5.364-0.748-8.823C337.597,274.333,333.004,271.684,331.189,272.958z"/>
					
						<ellipse transform="matrix(0.8186 -0.5744 0.5744 0.8186 -99.4676 242.2493)" style="opacity:0.3;fill:#484747;" cx="333.771" cy="278.592" rx="2.376" ry="2.625"/>
				</g>
				<g>
					<path style="opacity:0.2;fill:#FFFFFF;" d="M367.033,154.744c-2.209,1.498-1.53,7.295,1.026,11.063
						c2.556,3.768,6.226,5.738,9.066,3.812c2.84-1.927,2.365-6.065-0.191-9.832C374.377,156.019,369.241,153.245,367.033,154.744z"
						/>
					<path style="fill:#383838;" d="M366.937,155.335c-1.953,1.37-1.236,6.585,1.128,9.953c2.364,3.369,5.693,5.108,8.204,3.346
						c2.511-1.762,2.008-5.484-0.356-8.853C373.55,156.413,368.891,153.964,366.937,155.335z"/>
					<circle style="opacity:0.3;fill:#484747;" cx="369.358" cy="160.887" r="2.557"/>
				</g>
				<g>
					<path style="opacity:0.2;fill:#FFFFFF;" d="M365.861,227.172c-2.433,1.65-1.685,8.035,1.13,12.184
						c2.815,4.15,6.857,6.32,9.984,4.198c3.128-2.122,2.605-6.68-0.211-10.829C373.949,228.576,368.293,225.521,365.861,227.172z"/>
					<path style="fill:#383838;" d="M365.756,227.823c-2.151,1.51-1.361,7.252,1.242,10.962c2.603,3.71,6.27,5.626,9.036,3.685
						c2.766-1.941,2.211-6.04-0.392-9.75C373.038,229.01,367.907,226.313,365.756,227.823z"/>
					<circle style="opacity:0.3;fill:#484747;" cx="368.422" cy="233.937" r="2.816"/>
				</g>
				<path style="opacity:0.2;fill:#FEF8F9;" d="M206.438,246.681l-0.051,0.051l-1.126,0.768l-93.338,65.485l-3.225,2.305
					l-5.069,3.533l-0.051,0.05l-5.12,3.636l-16.896,11.826c-0.154-0.204-0.358-0.409-0.512-0.563
					c-0.051-0.051-0.103-0.102-0.103-0.154c-0.051,0-0.051-0.051-0.051-0.051l-0.051-0.051c-0.051-0.051-0.051-0.051-0.103-0.103
					c-1.587-1.791-3.072-3.635-4.506-5.529c0-0.053-0.051-0.053-0.051-0.103l29.287-20.582l56.473-39.578l0.051-0.051l36.403-25.499
					v-0.05l0.103-0.051c0,0.051,0.051,0.051,0.051,0.051l0.051,0.05c0.461,0.308,0.87,0.615,1.331,0.923
					c0.154,0.154,0.358,0.256,0.512,0.357c0.102,0.053,0.154,0.103,0.256,0.155c0,0,0.051,0,0.051,0.05
					c0.102,0.053,0.154,0.103,0.256,0.154c0.358,0.256,0.41,0.256,2.048,1.229l1.587,0.871c0.256,0.154,0.512,0.256,0.768,0.409
					c0.051,0,0.102,0.051,0.154,0.051C205.875,246.425,206.182,246.527,206.438,246.681z"/>
				<path style="opacity:0.2;fill:#FEF8F9;" d="M406.016,106.7l-0.614,0.41l-16.947,11.879l-5.171,3.635h-0.051l-7.987,5.631
					l-3.431,2.408c0.103-0.973,0.154-1.946,0.205-2.97v-1.177c0-1.997-0.102-3.942-0.358-5.887v-0.053c0-0.05,0-0.102,0-0.102
					l29.901-20.991l0.154-0.103c0,0.051,0,0.051,0.051,0.103c0.768,1.229,1.536,2.457,2.253,3.686
					C404.685,104.345,405.35,105.522,406.016,106.7z"/>
			</g>
		</g>
		<path style="opacity:0.2;fill:#FEF8F9;" d="M410.829,98.56l-4.813,3.379l-0.973,0.716c-0.051-0.05-0.051-0.05-0.102-0.103
			l-0.922,0.615l-0.717,0.564h-0.051l-16.896,11.826l-5.12,3.635l-0.051,0.053l-6.246,4.351v0.154
			c0.153,1.485,0.307,2.97,0.307,4.505c0.051,0.871,0.051,1.741,0,2.612c0,0.819-0.051,1.586-0.103,2.355
			c0,0.205-0.051,0.409-0.051,0.614c-0.153,1.844-0.41,3.584-0.768,5.376c-1.075,5.376-2.969,10.445-5.632,15.104
			c-0.102,0.205-0.205,0.41-0.358,0.615c-0.717,1.331-1.587,2.611-2.457,3.84c-0.051,0.051-0.051,0.051-0.103,0.101
			c-5.939,8.244-14.336,14.592-24.115,17.973c1.126,2.099,2.15,4.3,2.969,6.605c2.099,5.734,3.174,11.98,3.021,18.482
			c-0.768,27.648-23.757,49.459-51.405,48.743c-5.99-0.154-11.673-1.331-16.947-3.43c-2.099-0.82-4.147-1.792-6.144-2.97
			c-3.687-1.997-7.066-4.505-10.087-7.372c-8.397,10.649-21.504,17.356-36.045,16.948c-4.506-0.103-8.858-0.871-12.851-2.254
			c-1.536-0.461-3.021-1.075-4.454-1.741c-0.154-0.05-0.307-0.152-0.461-0.204h-0.051c-0.461-0.205-0.87-0.461-1.331-0.666
			c-0.358-0.205-0.666-0.357-1.024-0.563c-0.358-0.205-0.768-0.41-1.178-0.666c-0.051-0.051-0.153-0.103-0.205-0.154
			c-0.051-0.051-0.153-0.102-0.205-0.102c-0.461-0.307-0.871-0.563-1.28-0.819c-0.256-0.154-0.461-0.256-0.666-0.41
			c-0.512-0.359-0.973-0.716-1.485-1.075c0,0-0.051-0.051-0.102-0.051l-1.229-1.126l-1.997-1.844l-0.103-0.103v-0.05
			c0.051,0,0.051,0.05,0.103,0.05l0.051,0.053c0.409,0.306,0.87,0.665,1.28,0.973c0.205,0.102,0.461,0.255,0.666,0.41
			c0.102,0.102,0.256,0.152,0.409,0.255c0.358,0.205,0.717,0.461,1.075,0.666c0.102,0.051,0.154,0.102,0.256,0.154
			c0.358,0.205,0.768,0.46,1.178,0.665c0.307,0.205,0.614,0.359,0.972,0.564c0.615,0.306,1.229,0.614,1.843,0.87
			c0.051,0,0.102,0.051,0.154,0.051c0.717,0.359,1.485,0.665,2.253,0.921c0.666,0.308,1.331,0.513,2.048,0.769
			c0.051,0,0.051,0,0.102,0.05h0.102c1.997,0.666,4.096,1.179,6.247,1.537c2.099,0.409,4.198,0.614,6.4,0.665
			c3.072,0.102,6.093-0.154,9.011-0.665c10.855-1.946,20.429-7.885,27.034-16.283c0.051,0.051,0.051,0.051,0.102,0.103
			c4.352,4.096,9.472,7.475,15.104,9.78c1.383,0.614,2.816,1.178,4.301,1.586c1.946,0.615,3.994,1.126,6.093,1.485
			c2.458,0.461,5.018,0.769,7.578,0.819c2.151,0.051,4.25,0,6.349-0.255c24.73-2.457,44.391-22.99,45.056-48.487
			c0.153-4.608-0.358-9.113-1.434-13.363c-1.024-4.148-2.56-8.09-4.557-11.725c16.589-5.785,29.235-20.019,32.666-37.632
			c0.358-1.791,0.614-3.584,0.768-5.375c0.103-0.973,0.153-1.946,0.205-2.97c0.051-2.406-0.051-4.813-0.358-7.118v-0.152
			l30.054-21.044c0,0,0.051,0.051,0.051,0.103l0.154-0.103l1.024-0.716l5.632-3.942c0,0.051,0.051,0.051,0.051,0.103
			c0.563,0.767,1.075,1.637,1.638,2.457C410.317,97.69,410.573,98.15,410.829,98.56z"/>
	</g>
</g>
</svg>
